G04 #@! TF.GenerationSoftware,KiCad,Pcbnew,(5.1.5)-3*
G04 #@! TF.CreationDate,2020-06-05T14:27:12-04:00*
G04 #@! TF.ProjectId,OSSC,4f535343-2e6b-4696-9361-645f70636258,rev?*
G04 #@! TF.SameCoordinates,Original*
G04 #@! TF.FileFunction,Legend,Top*
G04 #@! TF.FilePolarity,Positive*
%FSLAX46Y46*%
G04 Gerber Fmt 4.6, Leading zero omitted, Abs format (unit mm)*
G04 Created by KiCad (PCBNEW (5.1.5)-3) date 2020-06-05 14:27:12*
%MOMM*%
%LPD*%
G04 APERTURE LIST*
%ADD10C,0.150000*%
%ADD11C,0.120000*%
G04 APERTURE END LIST*
D10*
X92202095Y-58888380D02*
X92773523Y-58888380D01*
X92487809Y-59888380D02*
X92487809Y-58888380D01*
X93011619Y-58888380D02*
X93678285Y-59888380D01*
X93678285Y-58888380D02*
X93011619Y-59888380D01*
X92797333Y-61920380D02*
X92464000Y-61444190D01*
X92225904Y-61920380D02*
X92225904Y-60920380D01*
X92606857Y-60920380D01*
X92702095Y-60968000D01*
X92749714Y-61015619D01*
X92797333Y-61110857D01*
X92797333Y-61253714D01*
X92749714Y-61348952D01*
X92702095Y-61396571D01*
X92606857Y-61444190D01*
X92225904Y-61444190D01*
X93130666Y-60920380D02*
X93797333Y-61920380D01*
X93797333Y-60920380D02*
X93130666Y-61920380D01*
X81216666Y-79716380D02*
X81550000Y-80716380D01*
X81883333Y-79716380D01*
X82788095Y-80621142D02*
X82740476Y-80668761D01*
X82597619Y-80716380D01*
X82502380Y-80716380D01*
X82359523Y-80668761D01*
X82264285Y-80573523D01*
X82216666Y-80478285D01*
X82169047Y-80287809D01*
X82169047Y-80144952D01*
X82216666Y-79954476D01*
X82264285Y-79859238D01*
X82359523Y-79764000D01*
X82502380Y-79716380D01*
X82597619Y-79716380D01*
X82740476Y-79764000D01*
X82788095Y-79811619D01*
X83788095Y-80621142D02*
X83740476Y-80668761D01*
X83597619Y-80716380D01*
X83502380Y-80716380D01*
X83359523Y-80668761D01*
X83264285Y-80573523D01*
X83216666Y-80478285D01*
X83169047Y-80287809D01*
X83169047Y-80144952D01*
X83216666Y-79954476D01*
X83264285Y-79859238D01*
X83359523Y-79764000D01*
X83502380Y-79716380D01*
X83597619Y-79716380D01*
X83740476Y-79764000D01*
X83788095Y-79811619D01*
X81788095Y-78494000D02*
X81692857Y-78446380D01*
X81550000Y-78446380D01*
X81407142Y-78494000D01*
X81311904Y-78589238D01*
X81264285Y-78684476D01*
X81216666Y-78874952D01*
X81216666Y-79017809D01*
X81264285Y-79208285D01*
X81311904Y-79303523D01*
X81407142Y-79398761D01*
X81550000Y-79446380D01*
X81645238Y-79446380D01*
X81788095Y-79398761D01*
X81835714Y-79351142D01*
X81835714Y-79017809D01*
X81645238Y-79017809D01*
X82264285Y-79446380D02*
X82264285Y-78446380D01*
X82835714Y-79446380D01*
X82835714Y-78446380D01*
X83311904Y-79446380D02*
X83311904Y-78446380D01*
X83550000Y-78446380D01*
X83692857Y-78494000D01*
X83788095Y-78589238D01*
X83835714Y-78684476D01*
X83883333Y-78874952D01*
X83883333Y-79017809D01*
X83835714Y-79208285D01*
X83788095Y-79303523D01*
X83692857Y-79398761D01*
X83550000Y-79446380D01*
X83311904Y-79446380D01*
X81359523Y-78128761D02*
X81502380Y-78176380D01*
X81740476Y-78176380D01*
X81835714Y-78128761D01*
X81883333Y-78081142D01*
X81930952Y-77985904D01*
X81930952Y-77890666D01*
X81883333Y-77795428D01*
X81835714Y-77747809D01*
X81740476Y-77700190D01*
X81550000Y-77652571D01*
X81454761Y-77604952D01*
X81407142Y-77557333D01*
X81359523Y-77462095D01*
X81359523Y-77366857D01*
X81407142Y-77271619D01*
X81454761Y-77224000D01*
X81550000Y-77176380D01*
X81788095Y-77176380D01*
X81930952Y-77224000D01*
X82930952Y-78081142D02*
X82883333Y-78128761D01*
X82740476Y-78176380D01*
X82645238Y-78176380D01*
X82502380Y-78128761D01*
X82407142Y-78033523D01*
X82359523Y-77938285D01*
X82311904Y-77747809D01*
X82311904Y-77604952D01*
X82359523Y-77414476D01*
X82407142Y-77319238D01*
X82502380Y-77224000D01*
X82645238Y-77176380D01*
X82740476Y-77176380D01*
X82883333Y-77224000D01*
X82930952Y-77271619D01*
X83835714Y-78176380D02*
X83359523Y-78176380D01*
X83359523Y-77176380D01*
X81335714Y-76858761D02*
X81478571Y-76906380D01*
X81716666Y-76906380D01*
X81811904Y-76858761D01*
X81859523Y-76811142D01*
X81907142Y-76715904D01*
X81907142Y-76620666D01*
X81859523Y-76525428D01*
X81811904Y-76477809D01*
X81716666Y-76430190D01*
X81526190Y-76382571D01*
X81430952Y-76334952D01*
X81383333Y-76287333D01*
X81335714Y-76192095D01*
X81335714Y-76096857D01*
X81383333Y-76001619D01*
X81430952Y-75954000D01*
X81526190Y-75906380D01*
X81764285Y-75906380D01*
X81907142Y-75954000D01*
X82335714Y-76906380D02*
X82335714Y-75906380D01*
X82573809Y-75906380D01*
X82716666Y-75954000D01*
X82811904Y-76049238D01*
X82859523Y-76144476D01*
X82907142Y-76334952D01*
X82907142Y-76477809D01*
X82859523Y-76668285D01*
X82811904Y-76763523D01*
X82716666Y-76858761D01*
X82573809Y-76906380D01*
X82335714Y-76906380D01*
X83288095Y-76620666D02*
X83764285Y-76620666D01*
X83192857Y-76906380D02*
X83526190Y-75906380D01*
X83859523Y-76906380D01*
D11*
X90745000Y-62153000D02*
X92135000Y-62153000D01*
X90745000Y-62153000D02*
X90745000Y-62028000D01*
X92135000Y-62153000D02*
X92135000Y-62028000D01*
X90745000Y-62153000D02*
X90831724Y-62153000D01*
X92048276Y-62153000D02*
X92135000Y-62153000D01*
X90745000Y-61468000D02*
X90745000Y-60783000D01*
X90745000Y-60783000D02*
X91440000Y-60783000D01*
X90745000Y-60121000D02*
X92135000Y-60121000D01*
X90745000Y-60121000D02*
X90745000Y-59996000D01*
X92135000Y-60121000D02*
X92135000Y-59996000D01*
X90745000Y-60121000D02*
X90831724Y-60121000D01*
X92048276Y-60121000D02*
X92135000Y-60121000D01*
X90745000Y-59436000D02*
X90745000Y-58751000D01*
X90745000Y-58751000D02*
X91440000Y-58751000D01*
X86454000Y-75759000D02*
X85651530Y-75759000D01*
X85036470Y-75759000D02*
X84234000Y-75759000D01*
X86454000Y-79504000D02*
X86454000Y-75759000D01*
X84234000Y-79504000D02*
X84234000Y-75759000D01*
X86454000Y-79504000D02*
X85907471Y-79504000D01*
X84780529Y-79504000D02*
X84234000Y-79504000D01*
X86454000Y-80264000D02*
X86454000Y-81024000D01*
X86454000Y-81024000D02*
X85344000Y-81024000D01*
X69086000Y-58323267D02*
X69086000Y-57980733D01*
X70106000Y-58323267D02*
X70106000Y-57980733D01*
D10*
X71510000Y-84700000D02*
X72035000Y-84700000D01*
X71510000Y-80400000D02*
X72035000Y-80400000D01*
X75810000Y-80400000D02*
X75285000Y-80400000D01*
X75810000Y-84700000D02*
X75285000Y-84700000D01*
X71510000Y-80400000D02*
X71510000Y-80925000D01*
X75810000Y-80400000D02*
X75810000Y-80925000D01*
X71510000Y-84700000D02*
X71510000Y-84175000D01*
D11*
X71195001Y-54760001D02*
X70815001Y-54760001D01*
X71195001Y-48340001D02*
X71195001Y-54760001D01*
X89435001Y-48340001D02*
X89435001Y-54760001D01*
X71195001Y-48340001D02*
X89435001Y-48340001D01*
X89435001Y-74085001D02*
X88435001Y-74085001D01*
X89435001Y-73305001D02*
X89435001Y-74085001D01*
X71195001Y-74085001D02*
X72195001Y-74085001D01*
X71195001Y-73305001D02*
X71195001Y-74085001D01*
X89660000Y-81590000D02*
X88200000Y-81590000D01*
X89660000Y-78430000D02*
X87500000Y-78430000D01*
X89660000Y-78430000D02*
X89660000Y-79360000D01*
X89660000Y-81590000D02*
X89660000Y-80660000D01*
X86690000Y-89045000D02*
X88570000Y-89045000D01*
X89740000Y-84575000D02*
X88690000Y-84575000D01*
X89740000Y-87075000D02*
X89740000Y-84575000D01*
X86570000Y-84575000D02*
X86570000Y-83585000D01*
X85520000Y-84575000D02*
X86570000Y-84575000D01*
X85520000Y-87075000D02*
X85520000Y-84575000D01*
D10*
X91106666Y-59360380D02*
X91106666Y-60074666D01*
X91059047Y-60217523D01*
X90963809Y-60312761D01*
X90820952Y-60360380D01*
X90725714Y-60360380D01*
X92011428Y-59693714D02*
X92011428Y-60360380D01*
X91773333Y-59312761D02*
X91535238Y-60027047D01*
X92154285Y-60027047D01*
X91106666Y-57328380D02*
X91106666Y-58042666D01*
X91059047Y-58185523D01*
X90963809Y-58280761D01*
X90820952Y-58328380D01*
X90725714Y-58328380D01*
X91487619Y-57328380D02*
X92106666Y-57328380D01*
X91773333Y-57709333D01*
X91916190Y-57709333D01*
X92011428Y-57756952D01*
X92059047Y-57804571D01*
X92106666Y-57899809D01*
X92106666Y-58137904D01*
X92059047Y-58233142D01*
X92011428Y-58280761D01*
X91916190Y-58328380D01*
X91630476Y-58328380D01*
X91535238Y-58280761D01*
X91487619Y-58233142D01*
X82383333Y-83410380D02*
X82050000Y-82934190D01*
X81811904Y-83410380D02*
X81811904Y-82410380D01*
X82192857Y-82410380D01*
X82288095Y-82458000D01*
X82335714Y-82505619D01*
X82383333Y-82600857D01*
X82383333Y-82743714D01*
X82335714Y-82838952D01*
X82288095Y-82886571D01*
X82192857Y-82934190D01*
X81811904Y-82934190D01*
X82716666Y-82410380D02*
X83335714Y-82410380D01*
X83002380Y-82791333D01*
X83145238Y-82791333D01*
X83240476Y-82838952D01*
X83288095Y-82886571D01*
X83335714Y-82981809D01*
X83335714Y-83219904D01*
X83288095Y-83315142D01*
X83240476Y-83362761D01*
X83145238Y-83410380D01*
X82859523Y-83410380D01*
X82764285Y-83362761D01*
X82716666Y-83315142D01*
X77303333Y-77514380D02*
X76970000Y-77038190D01*
X76731904Y-77514380D02*
X76731904Y-76514380D01*
X77112857Y-76514380D01*
X77208095Y-76562000D01*
X77255714Y-76609619D01*
X77303333Y-76704857D01*
X77303333Y-76847714D01*
X77255714Y-76942952D01*
X77208095Y-76990571D01*
X77112857Y-77038190D01*
X76731904Y-77038190D01*
X77684285Y-76609619D02*
X77731904Y-76562000D01*
X77827142Y-76514380D01*
X78065238Y-76514380D01*
X78160476Y-76562000D01*
X78208095Y-76609619D01*
X78255714Y-76704857D01*
X78255714Y-76800095D01*
X78208095Y-76942952D01*
X77636666Y-77514380D01*
X78255714Y-77514380D01*
X75017333Y-77573142D02*
X74969714Y-77620761D01*
X74826857Y-77668380D01*
X74731619Y-77668380D01*
X74588761Y-77620761D01*
X74493523Y-77525523D01*
X74445904Y-77430285D01*
X74398285Y-77239809D01*
X74398285Y-77096952D01*
X74445904Y-76906476D01*
X74493523Y-76811238D01*
X74588761Y-76716000D01*
X74731619Y-76668380D01*
X74826857Y-76668380D01*
X74969714Y-76716000D01*
X75017333Y-76763619D01*
X75398285Y-76763619D02*
X75445904Y-76716000D01*
X75541142Y-76668380D01*
X75779238Y-76668380D01*
X75874476Y-76716000D01*
X75922095Y-76763619D01*
X75969714Y-76858857D01*
X75969714Y-76954095D01*
X75922095Y-77096952D01*
X75350666Y-77668380D01*
X75969714Y-77668380D01*
X73001142Y-77890666D02*
X73048761Y-77938285D01*
X73096380Y-78081142D01*
X73096380Y-78176380D01*
X73048761Y-78319238D01*
X72953523Y-78414476D01*
X72858285Y-78462095D01*
X72667809Y-78509714D01*
X72524952Y-78509714D01*
X72334476Y-78462095D01*
X72239238Y-78414476D01*
X72144000Y-78319238D01*
X72096380Y-78176380D01*
X72096380Y-78081142D01*
X72144000Y-77938285D01*
X72191619Y-77890666D01*
X72096380Y-76985904D02*
X72096380Y-77462095D01*
X72572571Y-77509714D01*
X72524952Y-77462095D01*
X72477333Y-77366857D01*
X72477333Y-77128761D01*
X72524952Y-77033523D01*
X72572571Y-76985904D01*
X72667809Y-76938285D01*
X72905904Y-76938285D01*
X73001142Y-76985904D01*
X73048761Y-77033523D01*
X73096380Y-77128761D01*
X73096380Y-77366857D01*
X73048761Y-77462095D01*
X73001142Y-77509714D01*
X71715333Y-87379142D02*
X71667714Y-87426761D01*
X71524857Y-87474380D01*
X71429619Y-87474380D01*
X71286761Y-87426761D01*
X71191523Y-87331523D01*
X71143904Y-87236285D01*
X71096285Y-87045809D01*
X71096285Y-86902952D01*
X71143904Y-86712476D01*
X71191523Y-86617238D01*
X71286761Y-86522000D01*
X71429619Y-86474380D01*
X71524857Y-86474380D01*
X71667714Y-86522000D01*
X71715333Y-86569619D01*
X72572476Y-86807714D02*
X72572476Y-87474380D01*
X72334380Y-86426761D02*
X72096285Y-87141047D01*
X72715333Y-87141047D01*
X87296666Y-75398380D02*
X87296666Y-76112666D01*
X87249047Y-76255523D01*
X87153809Y-76350761D01*
X87010952Y-76398380D01*
X86915714Y-76398380D01*
X87725238Y-75493619D02*
X87772857Y-75446000D01*
X87868095Y-75398380D01*
X88106190Y-75398380D01*
X88201428Y-75446000D01*
X88249047Y-75493619D01*
X88296666Y-75588857D01*
X88296666Y-75684095D01*
X88249047Y-75826952D01*
X87677619Y-76398380D01*
X88296666Y-76398380D01*
X68618380Y-58318666D02*
X68142190Y-58652000D01*
X68618380Y-58890095D02*
X67618380Y-58890095D01*
X67618380Y-58509142D01*
X67666000Y-58413904D01*
X67713619Y-58366285D01*
X67808857Y-58318666D01*
X67951714Y-58318666D01*
X68046952Y-58366285D01*
X68094571Y-58413904D01*
X68142190Y-58509142D01*
X68142190Y-58890095D01*
X68618380Y-57366285D02*
X68618380Y-57937714D01*
X68618380Y-57652000D02*
X67618380Y-57652000D01*
X67761238Y-57747238D01*
X67856476Y-57842476D01*
X67904095Y-57937714D01*
X68783142Y-61634666D02*
X68830761Y-61682285D01*
X68878380Y-61825142D01*
X68878380Y-61920380D01*
X68830761Y-62063238D01*
X68735523Y-62158476D01*
X68640285Y-62206095D01*
X68449809Y-62253714D01*
X68306952Y-62253714D01*
X68116476Y-62206095D01*
X68021238Y-62158476D01*
X67926000Y-62063238D01*
X67878380Y-61920380D01*
X67878380Y-61825142D01*
X67926000Y-61682285D01*
X67973619Y-61634666D01*
X68878380Y-60682285D02*
X68878380Y-61253714D01*
X68878380Y-60968000D02*
X67878380Y-60968000D01*
X68021238Y-61063238D01*
X68116476Y-61158476D01*
X68164095Y-61253714D01*
X69799142Y-77382666D02*
X69846761Y-77430285D01*
X69894380Y-77573142D01*
X69894380Y-77668380D01*
X69846761Y-77811238D01*
X69751523Y-77906476D01*
X69656285Y-77954095D01*
X69465809Y-78001714D01*
X69322952Y-78001714D01*
X69132476Y-77954095D01*
X69037238Y-77906476D01*
X68942000Y-77811238D01*
X68894380Y-77668380D01*
X68894380Y-77573142D01*
X68942000Y-77430285D01*
X68989619Y-77382666D01*
X68894380Y-77049333D02*
X68894380Y-76430285D01*
X69275333Y-76763619D01*
X69275333Y-76620761D01*
X69322952Y-76525523D01*
X69370571Y-76477904D01*
X69465809Y-76430285D01*
X69703904Y-76430285D01*
X69799142Y-76477904D01*
X69846761Y-76525523D01*
X69894380Y-76620761D01*
X69894380Y-76906476D01*
X69846761Y-77001714D01*
X69799142Y-77049333D01*
X74676095Y-85812380D02*
X74676095Y-86621904D01*
X74723714Y-86717142D01*
X74771333Y-86764761D01*
X74866571Y-86812380D01*
X75057047Y-86812380D01*
X75152285Y-86764761D01*
X75199904Y-86717142D01*
X75247523Y-86621904D01*
X75247523Y-85812380D01*
X75628476Y-85812380D02*
X76247523Y-85812380D01*
X75914190Y-86193333D01*
X76057047Y-86193333D01*
X76152285Y-86240952D01*
X76199904Y-86288571D01*
X76247523Y-86383809D01*
X76247523Y-86621904D01*
X76199904Y-86717142D01*
X76152285Y-86764761D01*
X76057047Y-86812380D01*
X75771333Y-86812380D01*
X75676095Y-86764761D01*
X75628476Y-86717142D01*
X77978095Y-66762380D02*
X77978095Y-67571904D01*
X78025714Y-67667142D01*
X78073333Y-67714761D01*
X78168571Y-67762380D01*
X78359047Y-67762380D01*
X78454285Y-67714761D01*
X78501904Y-67667142D01*
X78549523Y-67571904D01*
X78549523Y-66762380D01*
X78978095Y-66857619D02*
X79025714Y-66810000D01*
X79120952Y-66762380D01*
X79359047Y-66762380D01*
X79454285Y-66810000D01*
X79501904Y-66857619D01*
X79549523Y-66952857D01*
X79549523Y-67048095D01*
X79501904Y-67190952D01*
X78930476Y-67762380D01*
X79549523Y-67762380D01*
X90678095Y-79462380D02*
X90678095Y-80271904D01*
X90725714Y-80367142D01*
X90773333Y-80414761D01*
X90868571Y-80462380D01*
X91059047Y-80462380D01*
X91154285Y-80414761D01*
X91201904Y-80367142D01*
X91249523Y-80271904D01*
X91249523Y-79462380D01*
X92249523Y-80462380D02*
X91678095Y-80462380D01*
X91963809Y-80462380D02*
X91963809Y-79462380D01*
X91868571Y-79605238D01*
X91773333Y-79700476D01*
X91678095Y-79748095D01*
X87296666Y-85812380D02*
X87296666Y-86526666D01*
X87249047Y-86669523D01*
X87153809Y-86764761D01*
X87010952Y-86812380D01*
X86915714Y-86812380D01*
X88296666Y-86812380D02*
X87725238Y-86812380D01*
X88010952Y-86812380D02*
X88010952Y-85812380D01*
X87915714Y-85955238D01*
X87820476Y-86050476D01*
X87725238Y-86098095D01*
M02*
