G04 #@! TF.GenerationSoftware,KiCad,Pcbnew,(5.1.5)-3*
G04 #@! TF.CreationDate,2020-06-05T14:27:12-04:00*
G04 #@! TF.ProjectId,OSSC,4f535343-2e6b-4696-9361-645f70636258,rev?*
G04 #@! TF.SameCoordinates,Original*
G04 #@! TF.FileFunction,Paste,Top*
G04 #@! TF.FilePolarity,Positive*
%FSLAX46Y46*%
G04 Gerber Fmt 4.6, Leading zero omitted, Abs format (unit mm)*
G04 Created by KiCad (PCBNEW (5.1.5)-3) date 2020-06-05 14:27:12*
%MOMM*%
%LPD*%
G04 APERTURE LIST*
%ADD10C,0.100000*%
%ADD11R,2.000000X0.900000*%
%ADD12R,0.900000X2.000000*%
%ADD13R,5.000000X5.000000*%
%ADD14R,0.900000X0.800000*%
G04 APERTURE END LIST*
D10*
G36*
X82226958Y-81468710D02*
G01*
X82241276Y-81470834D01*
X82255317Y-81474351D01*
X82268946Y-81479228D01*
X82282031Y-81485417D01*
X82294447Y-81492858D01*
X82306073Y-81501481D01*
X82316798Y-81511202D01*
X82326519Y-81521927D01*
X82335142Y-81533553D01*
X82342583Y-81545969D01*
X82348772Y-81559054D01*
X82353649Y-81572683D01*
X82357166Y-81586724D01*
X82359290Y-81601042D01*
X82360000Y-81615500D01*
X82360000Y-81960500D01*
X82359290Y-81974958D01*
X82357166Y-81989276D01*
X82353649Y-82003317D01*
X82348772Y-82016946D01*
X82342583Y-82030031D01*
X82335142Y-82042447D01*
X82326519Y-82054073D01*
X82316798Y-82064798D01*
X82306073Y-82074519D01*
X82294447Y-82083142D01*
X82282031Y-82090583D01*
X82268946Y-82096772D01*
X82255317Y-82101649D01*
X82241276Y-82105166D01*
X82226958Y-82107290D01*
X82212500Y-82108000D01*
X81917500Y-82108000D01*
X81903042Y-82107290D01*
X81888724Y-82105166D01*
X81874683Y-82101649D01*
X81861054Y-82096772D01*
X81847969Y-82090583D01*
X81835553Y-82083142D01*
X81823927Y-82074519D01*
X81813202Y-82064798D01*
X81803481Y-82054073D01*
X81794858Y-82042447D01*
X81787417Y-82030031D01*
X81781228Y-82016946D01*
X81776351Y-82003317D01*
X81772834Y-81989276D01*
X81770710Y-81974958D01*
X81770000Y-81960500D01*
X81770000Y-81615500D01*
X81770710Y-81601042D01*
X81772834Y-81586724D01*
X81776351Y-81572683D01*
X81781228Y-81559054D01*
X81787417Y-81545969D01*
X81794858Y-81533553D01*
X81803481Y-81521927D01*
X81813202Y-81511202D01*
X81823927Y-81501481D01*
X81835553Y-81492858D01*
X81847969Y-81485417D01*
X81861054Y-81479228D01*
X81874683Y-81474351D01*
X81888724Y-81470834D01*
X81903042Y-81468710D01*
X81917500Y-81468000D01*
X82212500Y-81468000D01*
X82226958Y-81468710D01*
G37*
G36*
X83196958Y-81468710D02*
G01*
X83211276Y-81470834D01*
X83225317Y-81474351D01*
X83238946Y-81479228D01*
X83252031Y-81485417D01*
X83264447Y-81492858D01*
X83276073Y-81501481D01*
X83286798Y-81511202D01*
X83296519Y-81521927D01*
X83305142Y-81533553D01*
X83312583Y-81545969D01*
X83318772Y-81559054D01*
X83323649Y-81572683D01*
X83327166Y-81586724D01*
X83329290Y-81601042D01*
X83330000Y-81615500D01*
X83330000Y-81960500D01*
X83329290Y-81974958D01*
X83327166Y-81989276D01*
X83323649Y-82003317D01*
X83318772Y-82016946D01*
X83312583Y-82030031D01*
X83305142Y-82042447D01*
X83296519Y-82054073D01*
X83286798Y-82064798D01*
X83276073Y-82074519D01*
X83264447Y-82083142D01*
X83252031Y-82090583D01*
X83238946Y-82096772D01*
X83225317Y-82101649D01*
X83211276Y-82105166D01*
X83196958Y-82107290D01*
X83182500Y-82108000D01*
X82887500Y-82108000D01*
X82873042Y-82107290D01*
X82858724Y-82105166D01*
X82844683Y-82101649D01*
X82831054Y-82096772D01*
X82817969Y-82090583D01*
X82805553Y-82083142D01*
X82793927Y-82074519D01*
X82783202Y-82064798D01*
X82773481Y-82054073D01*
X82764858Y-82042447D01*
X82757417Y-82030031D01*
X82751228Y-82016946D01*
X82746351Y-82003317D01*
X82742834Y-81989276D01*
X82740710Y-81974958D01*
X82740000Y-81960500D01*
X82740000Y-81615500D01*
X82740710Y-81601042D01*
X82742834Y-81586724D01*
X82746351Y-81572683D01*
X82751228Y-81559054D01*
X82757417Y-81545969D01*
X82764858Y-81533553D01*
X82773481Y-81521927D01*
X82783202Y-81511202D01*
X82793927Y-81501481D01*
X82805553Y-81492858D01*
X82817969Y-81485417D01*
X82831054Y-81479228D01*
X82844683Y-81474351D01*
X82858724Y-81470834D01*
X82873042Y-81468710D01*
X82887500Y-81468000D01*
X83182500Y-81468000D01*
X83196958Y-81468710D01*
G37*
G36*
X78116958Y-77912710D02*
G01*
X78131276Y-77914834D01*
X78145317Y-77918351D01*
X78158946Y-77923228D01*
X78172031Y-77929417D01*
X78184447Y-77936858D01*
X78196073Y-77945481D01*
X78206798Y-77955202D01*
X78216519Y-77965927D01*
X78225142Y-77977553D01*
X78232583Y-77989969D01*
X78238772Y-78003054D01*
X78243649Y-78016683D01*
X78247166Y-78030724D01*
X78249290Y-78045042D01*
X78250000Y-78059500D01*
X78250000Y-78404500D01*
X78249290Y-78418958D01*
X78247166Y-78433276D01*
X78243649Y-78447317D01*
X78238772Y-78460946D01*
X78232583Y-78474031D01*
X78225142Y-78486447D01*
X78216519Y-78498073D01*
X78206798Y-78508798D01*
X78196073Y-78518519D01*
X78184447Y-78527142D01*
X78172031Y-78534583D01*
X78158946Y-78540772D01*
X78145317Y-78545649D01*
X78131276Y-78549166D01*
X78116958Y-78551290D01*
X78102500Y-78552000D01*
X77807500Y-78552000D01*
X77793042Y-78551290D01*
X77778724Y-78549166D01*
X77764683Y-78545649D01*
X77751054Y-78540772D01*
X77737969Y-78534583D01*
X77725553Y-78527142D01*
X77713927Y-78518519D01*
X77703202Y-78508798D01*
X77693481Y-78498073D01*
X77684858Y-78486447D01*
X77677417Y-78474031D01*
X77671228Y-78460946D01*
X77666351Y-78447317D01*
X77662834Y-78433276D01*
X77660710Y-78418958D01*
X77660000Y-78404500D01*
X77660000Y-78059500D01*
X77660710Y-78045042D01*
X77662834Y-78030724D01*
X77666351Y-78016683D01*
X77671228Y-78003054D01*
X77677417Y-77989969D01*
X77684858Y-77977553D01*
X77693481Y-77965927D01*
X77703202Y-77955202D01*
X77713927Y-77945481D01*
X77725553Y-77936858D01*
X77737969Y-77929417D01*
X77751054Y-77923228D01*
X77764683Y-77918351D01*
X77778724Y-77914834D01*
X77793042Y-77912710D01*
X77807500Y-77912000D01*
X78102500Y-77912000D01*
X78116958Y-77912710D01*
G37*
G36*
X77146958Y-77912710D02*
G01*
X77161276Y-77914834D01*
X77175317Y-77918351D01*
X77188946Y-77923228D01*
X77202031Y-77929417D01*
X77214447Y-77936858D01*
X77226073Y-77945481D01*
X77236798Y-77955202D01*
X77246519Y-77965927D01*
X77255142Y-77977553D01*
X77262583Y-77989969D01*
X77268772Y-78003054D01*
X77273649Y-78016683D01*
X77277166Y-78030724D01*
X77279290Y-78045042D01*
X77280000Y-78059500D01*
X77280000Y-78404500D01*
X77279290Y-78418958D01*
X77277166Y-78433276D01*
X77273649Y-78447317D01*
X77268772Y-78460946D01*
X77262583Y-78474031D01*
X77255142Y-78486447D01*
X77246519Y-78498073D01*
X77236798Y-78508798D01*
X77226073Y-78518519D01*
X77214447Y-78527142D01*
X77202031Y-78534583D01*
X77188946Y-78540772D01*
X77175317Y-78545649D01*
X77161276Y-78549166D01*
X77146958Y-78551290D01*
X77132500Y-78552000D01*
X76837500Y-78552000D01*
X76823042Y-78551290D01*
X76808724Y-78549166D01*
X76794683Y-78545649D01*
X76781054Y-78540772D01*
X76767969Y-78534583D01*
X76755553Y-78527142D01*
X76743927Y-78518519D01*
X76733202Y-78508798D01*
X76723481Y-78498073D01*
X76714858Y-78486447D01*
X76707417Y-78474031D01*
X76701228Y-78460946D01*
X76696351Y-78447317D01*
X76692834Y-78433276D01*
X76690710Y-78418958D01*
X76690000Y-78404500D01*
X76690000Y-78059500D01*
X76690710Y-78045042D01*
X76692834Y-78030724D01*
X76696351Y-78016683D01*
X76701228Y-78003054D01*
X76707417Y-77989969D01*
X76714858Y-77977553D01*
X76723481Y-77965927D01*
X76733202Y-77955202D01*
X76743927Y-77945481D01*
X76755553Y-77936858D01*
X76767969Y-77929417D01*
X76781054Y-77923228D01*
X76794683Y-77918351D01*
X76808724Y-77914834D01*
X76823042Y-77912710D01*
X76837500Y-77912000D01*
X77132500Y-77912000D01*
X77146958Y-77912710D01*
G37*
G36*
X75370958Y-77960710D02*
G01*
X75385276Y-77962834D01*
X75399317Y-77966351D01*
X75412946Y-77971228D01*
X75426031Y-77977417D01*
X75438447Y-77984858D01*
X75450073Y-77993481D01*
X75460798Y-78003202D01*
X75470519Y-78013927D01*
X75479142Y-78025553D01*
X75486583Y-78037969D01*
X75492772Y-78051054D01*
X75497649Y-78064683D01*
X75501166Y-78078724D01*
X75503290Y-78093042D01*
X75504000Y-78107500D01*
X75504000Y-78402500D01*
X75503290Y-78416958D01*
X75501166Y-78431276D01*
X75497649Y-78445317D01*
X75492772Y-78458946D01*
X75486583Y-78472031D01*
X75479142Y-78484447D01*
X75470519Y-78496073D01*
X75460798Y-78506798D01*
X75450073Y-78516519D01*
X75438447Y-78525142D01*
X75426031Y-78532583D01*
X75412946Y-78538772D01*
X75399317Y-78543649D01*
X75385276Y-78547166D01*
X75370958Y-78549290D01*
X75356500Y-78550000D01*
X75011500Y-78550000D01*
X74997042Y-78549290D01*
X74982724Y-78547166D01*
X74968683Y-78543649D01*
X74955054Y-78538772D01*
X74941969Y-78532583D01*
X74929553Y-78525142D01*
X74917927Y-78516519D01*
X74907202Y-78506798D01*
X74897481Y-78496073D01*
X74888858Y-78484447D01*
X74881417Y-78472031D01*
X74875228Y-78458946D01*
X74870351Y-78445317D01*
X74866834Y-78431276D01*
X74864710Y-78416958D01*
X74864000Y-78402500D01*
X74864000Y-78107500D01*
X74864710Y-78093042D01*
X74866834Y-78078724D01*
X74870351Y-78064683D01*
X74875228Y-78051054D01*
X74881417Y-78037969D01*
X74888858Y-78025553D01*
X74897481Y-78013927D01*
X74907202Y-78003202D01*
X74917927Y-77993481D01*
X74929553Y-77984858D01*
X74941969Y-77977417D01*
X74955054Y-77971228D01*
X74968683Y-77966351D01*
X74982724Y-77962834D01*
X74997042Y-77960710D01*
X75011500Y-77960000D01*
X75356500Y-77960000D01*
X75370958Y-77960710D01*
G37*
G36*
X75370958Y-78930710D02*
G01*
X75385276Y-78932834D01*
X75399317Y-78936351D01*
X75412946Y-78941228D01*
X75426031Y-78947417D01*
X75438447Y-78954858D01*
X75450073Y-78963481D01*
X75460798Y-78973202D01*
X75470519Y-78983927D01*
X75479142Y-78995553D01*
X75486583Y-79007969D01*
X75492772Y-79021054D01*
X75497649Y-79034683D01*
X75501166Y-79048724D01*
X75503290Y-79063042D01*
X75504000Y-79077500D01*
X75504000Y-79372500D01*
X75503290Y-79386958D01*
X75501166Y-79401276D01*
X75497649Y-79415317D01*
X75492772Y-79428946D01*
X75486583Y-79442031D01*
X75479142Y-79454447D01*
X75470519Y-79466073D01*
X75460798Y-79476798D01*
X75450073Y-79486519D01*
X75438447Y-79495142D01*
X75426031Y-79502583D01*
X75412946Y-79508772D01*
X75399317Y-79513649D01*
X75385276Y-79517166D01*
X75370958Y-79519290D01*
X75356500Y-79520000D01*
X75011500Y-79520000D01*
X74997042Y-79519290D01*
X74982724Y-79517166D01*
X74968683Y-79513649D01*
X74955054Y-79508772D01*
X74941969Y-79502583D01*
X74929553Y-79495142D01*
X74917927Y-79486519D01*
X74907202Y-79476798D01*
X74897481Y-79466073D01*
X74888858Y-79454447D01*
X74881417Y-79442031D01*
X74875228Y-79428946D01*
X74870351Y-79415317D01*
X74866834Y-79401276D01*
X74864710Y-79386958D01*
X74864000Y-79372500D01*
X74864000Y-79077500D01*
X74864710Y-79063042D01*
X74866834Y-79048724D01*
X74870351Y-79034683D01*
X74875228Y-79021054D01*
X74881417Y-79007969D01*
X74888858Y-78995553D01*
X74897481Y-78983927D01*
X74907202Y-78973202D01*
X74917927Y-78963481D01*
X74929553Y-78954858D01*
X74941969Y-78947417D01*
X74955054Y-78941228D01*
X74968683Y-78936351D01*
X74982724Y-78932834D01*
X74997042Y-78930710D01*
X75011500Y-78930000D01*
X75356500Y-78930000D01*
X75370958Y-78930710D01*
G37*
G36*
X73336958Y-78928710D02*
G01*
X73351276Y-78930834D01*
X73365317Y-78934351D01*
X73378946Y-78939228D01*
X73392031Y-78945417D01*
X73404447Y-78952858D01*
X73416073Y-78961481D01*
X73426798Y-78971202D01*
X73436519Y-78981927D01*
X73445142Y-78993553D01*
X73452583Y-79005969D01*
X73458772Y-79019054D01*
X73463649Y-79032683D01*
X73467166Y-79046724D01*
X73469290Y-79061042D01*
X73470000Y-79075500D01*
X73470000Y-79420500D01*
X73469290Y-79434958D01*
X73467166Y-79449276D01*
X73463649Y-79463317D01*
X73458772Y-79476946D01*
X73452583Y-79490031D01*
X73445142Y-79502447D01*
X73436519Y-79514073D01*
X73426798Y-79524798D01*
X73416073Y-79534519D01*
X73404447Y-79543142D01*
X73392031Y-79550583D01*
X73378946Y-79556772D01*
X73365317Y-79561649D01*
X73351276Y-79565166D01*
X73336958Y-79567290D01*
X73322500Y-79568000D01*
X73027500Y-79568000D01*
X73013042Y-79567290D01*
X72998724Y-79565166D01*
X72984683Y-79561649D01*
X72971054Y-79556772D01*
X72957969Y-79550583D01*
X72945553Y-79543142D01*
X72933927Y-79534519D01*
X72923202Y-79524798D01*
X72913481Y-79514073D01*
X72904858Y-79502447D01*
X72897417Y-79490031D01*
X72891228Y-79476946D01*
X72886351Y-79463317D01*
X72882834Y-79449276D01*
X72880710Y-79434958D01*
X72880000Y-79420500D01*
X72880000Y-79075500D01*
X72880710Y-79061042D01*
X72882834Y-79046724D01*
X72886351Y-79032683D01*
X72891228Y-79019054D01*
X72897417Y-79005969D01*
X72904858Y-78993553D01*
X72913481Y-78981927D01*
X72923202Y-78971202D01*
X72933927Y-78961481D01*
X72945553Y-78952858D01*
X72957969Y-78945417D01*
X72971054Y-78939228D01*
X72984683Y-78934351D01*
X72998724Y-78930834D01*
X73013042Y-78928710D01*
X73027500Y-78928000D01*
X73322500Y-78928000D01*
X73336958Y-78928710D01*
G37*
G36*
X74306958Y-78928710D02*
G01*
X74321276Y-78930834D01*
X74335317Y-78934351D01*
X74348946Y-78939228D01*
X74362031Y-78945417D01*
X74374447Y-78952858D01*
X74386073Y-78961481D01*
X74396798Y-78971202D01*
X74406519Y-78981927D01*
X74415142Y-78993553D01*
X74422583Y-79005969D01*
X74428772Y-79019054D01*
X74433649Y-79032683D01*
X74437166Y-79046724D01*
X74439290Y-79061042D01*
X74440000Y-79075500D01*
X74440000Y-79420500D01*
X74439290Y-79434958D01*
X74437166Y-79449276D01*
X74433649Y-79463317D01*
X74428772Y-79476946D01*
X74422583Y-79490031D01*
X74415142Y-79502447D01*
X74406519Y-79514073D01*
X74396798Y-79524798D01*
X74386073Y-79534519D01*
X74374447Y-79543142D01*
X74362031Y-79550583D01*
X74348946Y-79556772D01*
X74335317Y-79561649D01*
X74321276Y-79565166D01*
X74306958Y-79567290D01*
X74292500Y-79568000D01*
X73997500Y-79568000D01*
X73983042Y-79567290D01*
X73968724Y-79565166D01*
X73954683Y-79561649D01*
X73941054Y-79556772D01*
X73927969Y-79550583D01*
X73915553Y-79543142D01*
X73903927Y-79534519D01*
X73893202Y-79524798D01*
X73883481Y-79514073D01*
X73874858Y-79502447D01*
X73867417Y-79490031D01*
X73861228Y-79476946D01*
X73856351Y-79463317D01*
X73852834Y-79449276D01*
X73850710Y-79434958D01*
X73850000Y-79420500D01*
X73850000Y-79075500D01*
X73850710Y-79061042D01*
X73852834Y-79046724D01*
X73856351Y-79032683D01*
X73861228Y-79019054D01*
X73867417Y-79005969D01*
X73874858Y-78993553D01*
X73883481Y-78981927D01*
X73893202Y-78971202D01*
X73903927Y-78961481D01*
X73915553Y-78952858D01*
X73927969Y-78945417D01*
X73941054Y-78939228D01*
X73954683Y-78934351D01*
X73968724Y-78930834D01*
X73983042Y-78928710D01*
X73997500Y-78928000D01*
X74292500Y-78928000D01*
X74306958Y-78928710D01*
G37*
G36*
X71558958Y-85532710D02*
G01*
X71573276Y-85534834D01*
X71587317Y-85538351D01*
X71600946Y-85543228D01*
X71614031Y-85549417D01*
X71626447Y-85556858D01*
X71638073Y-85565481D01*
X71648798Y-85575202D01*
X71658519Y-85585927D01*
X71667142Y-85597553D01*
X71674583Y-85609969D01*
X71680772Y-85623054D01*
X71685649Y-85636683D01*
X71689166Y-85650724D01*
X71691290Y-85665042D01*
X71692000Y-85679500D01*
X71692000Y-86024500D01*
X71691290Y-86038958D01*
X71689166Y-86053276D01*
X71685649Y-86067317D01*
X71680772Y-86080946D01*
X71674583Y-86094031D01*
X71667142Y-86106447D01*
X71658519Y-86118073D01*
X71648798Y-86128798D01*
X71638073Y-86138519D01*
X71626447Y-86147142D01*
X71614031Y-86154583D01*
X71600946Y-86160772D01*
X71587317Y-86165649D01*
X71573276Y-86169166D01*
X71558958Y-86171290D01*
X71544500Y-86172000D01*
X71249500Y-86172000D01*
X71235042Y-86171290D01*
X71220724Y-86169166D01*
X71206683Y-86165649D01*
X71193054Y-86160772D01*
X71179969Y-86154583D01*
X71167553Y-86147142D01*
X71155927Y-86138519D01*
X71145202Y-86128798D01*
X71135481Y-86118073D01*
X71126858Y-86106447D01*
X71119417Y-86094031D01*
X71113228Y-86080946D01*
X71108351Y-86067317D01*
X71104834Y-86053276D01*
X71102710Y-86038958D01*
X71102000Y-86024500D01*
X71102000Y-85679500D01*
X71102710Y-85665042D01*
X71104834Y-85650724D01*
X71108351Y-85636683D01*
X71113228Y-85623054D01*
X71119417Y-85609969D01*
X71126858Y-85597553D01*
X71135481Y-85585927D01*
X71145202Y-85575202D01*
X71155927Y-85565481D01*
X71167553Y-85556858D01*
X71179969Y-85549417D01*
X71193054Y-85543228D01*
X71206683Y-85538351D01*
X71220724Y-85534834D01*
X71235042Y-85532710D01*
X71249500Y-85532000D01*
X71544500Y-85532000D01*
X71558958Y-85532710D01*
G37*
G36*
X72528958Y-85532710D02*
G01*
X72543276Y-85534834D01*
X72557317Y-85538351D01*
X72570946Y-85543228D01*
X72584031Y-85549417D01*
X72596447Y-85556858D01*
X72608073Y-85565481D01*
X72618798Y-85575202D01*
X72628519Y-85585927D01*
X72637142Y-85597553D01*
X72644583Y-85609969D01*
X72650772Y-85623054D01*
X72655649Y-85636683D01*
X72659166Y-85650724D01*
X72661290Y-85665042D01*
X72662000Y-85679500D01*
X72662000Y-86024500D01*
X72661290Y-86038958D01*
X72659166Y-86053276D01*
X72655649Y-86067317D01*
X72650772Y-86080946D01*
X72644583Y-86094031D01*
X72637142Y-86106447D01*
X72628519Y-86118073D01*
X72618798Y-86128798D01*
X72608073Y-86138519D01*
X72596447Y-86147142D01*
X72584031Y-86154583D01*
X72570946Y-86160772D01*
X72557317Y-86165649D01*
X72543276Y-86169166D01*
X72528958Y-86171290D01*
X72514500Y-86172000D01*
X72219500Y-86172000D01*
X72205042Y-86171290D01*
X72190724Y-86169166D01*
X72176683Y-86165649D01*
X72163054Y-86160772D01*
X72149969Y-86154583D01*
X72137553Y-86147142D01*
X72125927Y-86138519D01*
X72115202Y-86128798D01*
X72105481Y-86118073D01*
X72096858Y-86106447D01*
X72089417Y-86094031D01*
X72083228Y-86080946D01*
X72078351Y-86067317D01*
X72074834Y-86053276D01*
X72072710Y-86038958D01*
X72072000Y-86024500D01*
X72072000Y-85679500D01*
X72072710Y-85665042D01*
X72074834Y-85650724D01*
X72078351Y-85636683D01*
X72083228Y-85623054D01*
X72089417Y-85609969D01*
X72096858Y-85597553D01*
X72105481Y-85585927D01*
X72115202Y-85575202D01*
X72125927Y-85565481D01*
X72137553Y-85556858D01*
X72149969Y-85549417D01*
X72163054Y-85543228D01*
X72176683Y-85538351D01*
X72190724Y-85534834D01*
X72205042Y-85532710D01*
X72219500Y-85532000D01*
X72514500Y-85532000D01*
X72528958Y-85532710D01*
G37*
G36*
X69856779Y-56753144D02*
G01*
X69879834Y-56756563D01*
X69902443Y-56762227D01*
X69924387Y-56770079D01*
X69945457Y-56780044D01*
X69965448Y-56792026D01*
X69984168Y-56805910D01*
X70001438Y-56821562D01*
X70017090Y-56838832D01*
X70030974Y-56857552D01*
X70042956Y-56877543D01*
X70052921Y-56898613D01*
X70060773Y-56920557D01*
X70066437Y-56943166D01*
X70069856Y-56966221D01*
X70071000Y-56989500D01*
X70071000Y-57564500D01*
X70069856Y-57587779D01*
X70066437Y-57610834D01*
X70060773Y-57633443D01*
X70052921Y-57655387D01*
X70042956Y-57676457D01*
X70030974Y-57696448D01*
X70017090Y-57715168D01*
X70001438Y-57732438D01*
X69984168Y-57748090D01*
X69965448Y-57761974D01*
X69945457Y-57773956D01*
X69924387Y-57783921D01*
X69902443Y-57791773D01*
X69879834Y-57797437D01*
X69856779Y-57800856D01*
X69833500Y-57802000D01*
X69358500Y-57802000D01*
X69335221Y-57800856D01*
X69312166Y-57797437D01*
X69289557Y-57791773D01*
X69267613Y-57783921D01*
X69246543Y-57773956D01*
X69226552Y-57761974D01*
X69207832Y-57748090D01*
X69190562Y-57732438D01*
X69174910Y-57715168D01*
X69161026Y-57696448D01*
X69149044Y-57676457D01*
X69139079Y-57655387D01*
X69131227Y-57633443D01*
X69125563Y-57610834D01*
X69122144Y-57587779D01*
X69121000Y-57564500D01*
X69121000Y-56989500D01*
X69122144Y-56966221D01*
X69125563Y-56943166D01*
X69131227Y-56920557D01*
X69139079Y-56898613D01*
X69149044Y-56877543D01*
X69161026Y-56857552D01*
X69174910Y-56838832D01*
X69190562Y-56821562D01*
X69207832Y-56805910D01*
X69226552Y-56792026D01*
X69246543Y-56780044D01*
X69267613Y-56770079D01*
X69289557Y-56762227D01*
X69312166Y-56756563D01*
X69335221Y-56753144D01*
X69358500Y-56752000D01*
X69833500Y-56752000D01*
X69856779Y-56753144D01*
G37*
G36*
X69856779Y-58503144D02*
G01*
X69879834Y-58506563D01*
X69902443Y-58512227D01*
X69924387Y-58520079D01*
X69945457Y-58530044D01*
X69965448Y-58542026D01*
X69984168Y-58555910D01*
X70001438Y-58571562D01*
X70017090Y-58588832D01*
X70030974Y-58607552D01*
X70042956Y-58627543D01*
X70052921Y-58648613D01*
X70060773Y-58670557D01*
X70066437Y-58693166D01*
X70069856Y-58716221D01*
X70071000Y-58739500D01*
X70071000Y-59314500D01*
X70069856Y-59337779D01*
X70066437Y-59360834D01*
X70060773Y-59383443D01*
X70052921Y-59405387D01*
X70042956Y-59426457D01*
X70030974Y-59446448D01*
X70017090Y-59465168D01*
X70001438Y-59482438D01*
X69984168Y-59498090D01*
X69965448Y-59511974D01*
X69945457Y-59523956D01*
X69924387Y-59533921D01*
X69902443Y-59541773D01*
X69879834Y-59547437D01*
X69856779Y-59550856D01*
X69833500Y-59552000D01*
X69358500Y-59552000D01*
X69335221Y-59550856D01*
X69312166Y-59547437D01*
X69289557Y-59541773D01*
X69267613Y-59533921D01*
X69246543Y-59523956D01*
X69226552Y-59511974D01*
X69207832Y-59498090D01*
X69190562Y-59482438D01*
X69174910Y-59465168D01*
X69161026Y-59446448D01*
X69149044Y-59426457D01*
X69139079Y-59405387D01*
X69131227Y-59383443D01*
X69125563Y-59360834D01*
X69122144Y-59337779D01*
X69121000Y-59314500D01*
X69121000Y-58739500D01*
X69122144Y-58716221D01*
X69125563Y-58693166D01*
X69131227Y-58670557D01*
X69139079Y-58648613D01*
X69149044Y-58627543D01*
X69161026Y-58607552D01*
X69174910Y-58588832D01*
X69190562Y-58571562D01*
X69207832Y-58555910D01*
X69226552Y-58542026D01*
X69246543Y-58530044D01*
X69267613Y-58520079D01*
X69289557Y-58512227D01*
X69312166Y-58506563D01*
X69335221Y-58503144D01*
X69358500Y-58502000D01*
X69833500Y-58502000D01*
X69856779Y-58503144D01*
G37*
G36*
X69782958Y-60688710D02*
G01*
X69797276Y-60690834D01*
X69811317Y-60694351D01*
X69824946Y-60699228D01*
X69838031Y-60705417D01*
X69850447Y-60712858D01*
X69862073Y-60721481D01*
X69872798Y-60731202D01*
X69882519Y-60741927D01*
X69891142Y-60753553D01*
X69898583Y-60765969D01*
X69904772Y-60779054D01*
X69909649Y-60792683D01*
X69913166Y-60806724D01*
X69915290Y-60821042D01*
X69916000Y-60835500D01*
X69916000Y-61130500D01*
X69915290Y-61144958D01*
X69913166Y-61159276D01*
X69909649Y-61173317D01*
X69904772Y-61186946D01*
X69898583Y-61200031D01*
X69891142Y-61212447D01*
X69882519Y-61224073D01*
X69872798Y-61234798D01*
X69862073Y-61244519D01*
X69850447Y-61253142D01*
X69838031Y-61260583D01*
X69824946Y-61266772D01*
X69811317Y-61271649D01*
X69797276Y-61275166D01*
X69782958Y-61277290D01*
X69768500Y-61278000D01*
X69423500Y-61278000D01*
X69409042Y-61277290D01*
X69394724Y-61275166D01*
X69380683Y-61271649D01*
X69367054Y-61266772D01*
X69353969Y-61260583D01*
X69341553Y-61253142D01*
X69329927Y-61244519D01*
X69319202Y-61234798D01*
X69309481Y-61224073D01*
X69300858Y-61212447D01*
X69293417Y-61200031D01*
X69287228Y-61186946D01*
X69282351Y-61173317D01*
X69278834Y-61159276D01*
X69276710Y-61144958D01*
X69276000Y-61130500D01*
X69276000Y-60835500D01*
X69276710Y-60821042D01*
X69278834Y-60806724D01*
X69282351Y-60792683D01*
X69287228Y-60779054D01*
X69293417Y-60765969D01*
X69300858Y-60753553D01*
X69309481Y-60741927D01*
X69319202Y-60731202D01*
X69329927Y-60721481D01*
X69341553Y-60712858D01*
X69353969Y-60705417D01*
X69367054Y-60699228D01*
X69380683Y-60694351D01*
X69394724Y-60690834D01*
X69409042Y-60688710D01*
X69423500Y-60688000D01*
X69768500Y-60688000D01*
X69782958Y-60688710D01*
G37*
G36*
X69782958Y-61658710D02*
G01*
X69797276Y-61660834D01*
X69811317Y-61664351D01*
X69824946Y-61669228D01*
X69838031Y-61675417D01*
X69850447Y-61682858D01*
X69862073Y-61691481D01*
X69872798Y-61701202D01*
X69882519Y-61711927D01*
X69891142Y-61723553D01*
X69898583Y-61735969D01*
X69904772Y-61749054D01*
X69909649Y-61762683D01*
X69913166Y-61776724D01*
X69915290Y-61791042D01*
X69916000Y-61805500D01*
X69916000Y-62100500D01*
X69915290Y-62114958D01*
X69913166Y-62129276D01*
X69909649Y-62143317D01*
X69904772Y-62156946D01*
X69898583Y-62170031D01*
X69891142Y-62182447D01*
X69882519Y-62194073D01*
X69872798Y-62204798D01*
X69862073Y-62214519D01*
X69850447Y-62223142D01*
X69838031Y-62230583D01*
X69824946Y-62236772D01*
X69811317Y-62241649D01*
X69797276Y-62245166D01*
X69782958Y-62247290D01*
X69768500Y-62248000D01*
X69423500Y-62248000D01*
X69409042Y-62247290D01*
X69394724Y-62245166D01*
X69380683Y-62241649D01*
X69367054Y-62236772D01*
X69353969Y-62230583D01*
X69341553Y-62223142D01*
X69329927Y-62214519D01*
X69319202Y-62204798D01*
X69309481Y-62194073D01*
X69300858Y-62182447D01*
X69293417Y-62170031D01*
X69287228Y-62156946D01*
X69282351Y-62143317D01*
X69278834Y-62129276D01*
X69276710Y-62114958D01*
X69276000Y-62100500D01*
X69276000Y-61805500D01*
X69276710Y-61791042D01*
X69278834Y-61776724D01*
X69282351Y-61762683D01*
X69287228Y-61749054D01*
X69293417Y-61735969D01*
X69300858Y-61723553D01*
X69309481Y-61711927D01*
X69319202Y-61701202D01*
X69329927Y-61691481D01*
X69341553Y-61682858D01*
X69353969Y-61675417D01*
X69367054Y-61669228D01*
X69380683Y-61664351D01*
X69394724Y-61660834D01*
X69409042Y-61658710D01*
X69423500Y-61658000D01*
X69768500Y-61658000D01*
X69782958Y-61658710D01*
G37*
G36*
X70798958Y-76436710D02*
G01*
X70813276Y-76438834D01*
X70827317Y-76442351D01*
X70840946Y-76447228D01*
X70854031Y-76453417D01*
X70866447Y-76460858D01*
X70878073Y-76469481D01*
X70888798Y-76479202D01*
X70898519Y-76489927D01*
X70907142Y-76501553D01*
X70914583Y-76513969D01*
X70920772Y-76527054D01*
X70925649Y-76540683D01*
X70929166Y-76554724D01*
X70931290Y-76569042D01*
X70932000Y-76583500D01*
X70932000Y-76878500D01*
X70931290Y-76892958D01*
X70929166Y-76907276D01*
X70925649Y-76921317D01*
X70920772Y-76934946D01*
X70914583Y-76948031D01*
X70907142Y-76960447D01*
X70898519Y-76972073D01*
X70888798Y-76982798D01*
X70878073Y-76992519D01*
X70866447Y-77001142D01*
X70854031Y-77008583D01*
X70840946Y-77014772D01*
X70827317Y-77019649D01*
X70813276Y-77023166D01*
X70798958Y-77025290D01*
X70784500Y-77026000D01*
X70439500Y-77026000D01*
X70425042Y-77025290D01*
X70410724Y-77023166D01*
X70396683Y-77019649D01*
X70383054Y-77014772D01*
X70369969Y-77008583D01*
X70357553Y-77001142D01*
X70345927Y-76992519D01*
X70335202Y-76982798D01*
X70325481Y-76972073D01*
X70316858Y-76960447D01*
X70309417Y-76948031D01*
X70303228Y-76934946D01*
X70298351Y-76921317D01*
X70294834Y-76907276D01*
X70292710Y-76892958D01*
X70292000Y-76878500D01*
X70292000Y-76583500D01*
X70292710Y-76569042D01*
X70294834Y-76554724D01*
X70298351Y-76540683D01*
X70303228Y-76527054D01*
X70309417Y-76513969D01*
X70316858Y-76501553D01*
X70325481Y-76489927D01*
X70335202Y-76479202D01*
X70345927Y-76469481D01*
X70357553Y-76460858D01*
X70369969Y-76453417D01*
X70383054Y-76447228D01*
X70396683Y-76442351D01*
X70410724Y-76438834D01*
X70425042Y-76436710D01*
X70439500Y-76436000D01*
X70784500Y-76436000D01*
X70798958Y-76436710D01*
G37*
G36*
X70798958Y-77406710D02*
G01*
X70813276Y-77408834D01*
X70827317Y-77412351D01*
X70840946Y-77417228D01*
X70854031Y-77423417D01*
X70866447Y-77430858D01*
X70878073Y-77439481D01*
X70888798Y-77449202D01*
X70898519Y-77459927D01*
X70907142Y-77471553D01*
X70914583Y-77483969D01*
X70920772Y-77497054D01*
X70925649Y-77510683D01*
X70929166Y-77524724D01*
X70931290Y-77539042D01*
X70932000Y-77553500D01*
X70932000Y-77848500D01*
X70931290Y-77862958D01*
X70929166Y-77877276D01*
X70925649Y-77891317D01*
X70920772Y-77904946D01*
X70914583Y-77918031D01*
X70907142Y-77930447D01*
X70898519Y-77942073D01*
X70888798Y-77952798D01*
X70878073Y-77962519D01*
X70866447Y-77971142D01*
X70854031Y-77978583D01*
X70840946Y-77984772D01*
X70827317Y-77989649D01*
X70813276Y-77993166D01*
X70798958Y-77995290D01*
X70784500Y-77996000D01*
X70439500Y-77996000D01*
X70425042Y-77995290D01*
X70410724Y-77993166D01*
X70396683Y-77989649D01*
X70383054Y-77984772D01*
X70369969Y-77978583D01*
X70357553Y-77971142D01*
X70345927Y-77962519D01*
X70335202Y-77952798D01*
X70325481Y-77942073D01*
X70316858Y-77930447D01*
X70309417Y-77918031D01*
X70303228Y-77904946D01*
X70298351Y-77891317D01*
X70294834Y-77877276D01*
X70292710Y-77862958D01*
X70292000Y-77848500D01*
X70292000Y-77553500D01*
X70292710Y-77539042D01*
X70294834Y-77524724D01*
X70298351Y-77510683D01*
X70303228Y-77497054D01*
X70309417Y-77483969D01*
X70316858Y-77471553D01*
X70325481Y-77459927D01*
X70335202Y-77449202D01*
X70345927Y-77439481D01*
X70357553Y-77430858D01*
X70369969Y-77423417D01*
X70383054Y-77417228D01*
X70396683Y-77412351D01*
X70410724Y-77408834D01*
X70425042Y-77406710D01*
X70439500Y-77406000D01*
X70784500Y-77406000D01*
X70798958Y-77406710D01*
G37*
G36*
X74992351Y-84075361D02*
G01*
X74999632Y-84076441D01*
X75006771Y-84078229D01*
X75013701Y-84080709D01*
X75020355Y-84083856D01*
X75026668Y-84087640D01*
X75032579Y-84092024D01*
X75038033Y-84096967D01*
X75042976Y-84102421D01*
X75047360Y-84108332D01*
X75051144Y-84114645D01*
X75054291Y-84121299D01*
X75056771Y-84128229D01*
X75058559Y-84135368D01*
X75059639Y-84142649D01*
X75060000Y-84150000D01*
X75060000Y-84850000D01*
X75059639Y-84857351D01*
X75058559Y-84864632D01*
X75056771Y-84871771D01*
X75054291Y-84878701D01*
X75051144Y-84885355D01*
X75047360Y-84891668D01*
X75042976Y-84897579D01*
X75038033Y-84903033D01*
X75032579Y-84907976D01*
X75026668Y-84912360D01*
X75020355Y-84916144D01*
X75013701Y-84919291D01*
X75006771Y-84921771D01*
X74999632Y-84923559D01*
X74992351Y-84924639D01*
X74985000Y-84925000D01*
X74835000Y-84925000D01*
X74827649Y-84924639D01*
X74820368Y-84923559D01*
X74813229Y-84921771D01*
X74806299Y-84919291D01*
X74799645Y-84916144D01*
X74793332Y-84912360D01*
X74787421Y-84907976D01*
X74781967Y-84903033D01*
X74777024Y-84897579D01*
X74772640Y-84891668D01*
X74768856Y-84885355D01*
X74765709Y-84878701D01*
X74763229Y-84871771D01*
X74761441Y-84864632D01*
X74760361Y-84857351D01*
X74760000Y-84850000D01*
X74760000Y-84150000D01*
X74760361Y-84142649D01*
X74761441Y-84135368D01*
X74763229Y-84128229D01*
X74765709Y-84121299D01*
X74768856Y-84114645D01*
X74772640Y-84108332D01*
X74777024Y-84102421D01*
X74781967Y-84096967D01*
X74787421Y-84092024D01*
X74793332Y-84087640D01*
X74799645Y-84083856D01*
X74806299Y-84080709D01*
X74813229Y-84078229D01*
X74820368Y-84076441D01*
X74827649Y-84075361D01*
X74835000Y-84075000D01*
X74985000Y-84075000D01*
X74992351Y-84075361D01*
G37*
G36*
X74492351Y-84075361D02*
G01*
X74499632Y-84076441D01*
X74506771Y-84078229D01*
X74513701Y-84080709D01*
X74520355Y-84083856D01*
X74526668Y-84087640D01*
X74532579Y-84092024D01*
X74538033Y-84096967D01*
X74542976Y-84102421D01*
X74547360Y-84108332D01*
X74551144Y-84114645D01*
X74554291Y-84121299D01*
X74556771Y-84128229D01*
X74558559Y-84135368D01*
X74559639Y-84142649D01*
X74560000Y-84150000D01*
X74560000Y-84850000D01*
X74559639Y-84857351D01*
X74558559Y-84864632D01*
X74556771Y-84871771D01*
X74554291Y-84878701D01*
X74551144Y-84885355D01*
X74547360Y-84891668D01*
X74542976Y-84897579D01*
X74538033Y-84903033D01*
X74532579Y-84907976D01*
X74526668Y-84912360D01*
X74520355Y-84916144D01*
X74513701Y-84919291D01*
X74506771Y-84921771D01*
X74499632Y-84923559D01*
X74492351Y-84924639D01*
X74485000Y-84925000D01*
X74335000Y-84925000D01*
X74327649Y-84924639D01*
X74320368Y-84923559D01*
X74313229Y-84921771D01*
X74306299Y-84919291D01*
X74299645Y-84916144D01*
X74293332Y-84912360D01*
X74287421Y-84907976D01*
X74281967Y-84903033D01*
X74277024Y-84897579D01*
X74272640Y-84891668D01*
X74268856Y-84885355D01*
X74265709Y-84878701D01*
X74263229Y-84871771D01*
X74261441Y-84864632D01*
X74260361Y-84857351D01*
X74260000Y-84850000D01*
X74260000Y-84150000D01*
X74260361Y-84142649D01*
X74261441Y-84135368D01*
X74263229Y-84128229D01*
X74265709Y-84121299D01*
X74268856Y-84114645D01*
X74272640Y-84108332D01*
X74277024Y-84102421D01*
X74281967Y-84096967D01*
X74287421Y-84092024D01*
X74293332Y-84087640D01*
X74299645Y-84083856D01*
X74306299Y-84080709D01*
X74313229Y-84078229D01*
X74320368Y-84076441D01*
X74327649Y-84075361D01*
X74335000Y-84075000D01*
X74485000Y-84075000D01*
X74492351Y-84075361D01*
G37*
G36*
X73992351Y-84075361D02*
G01*
X73999632Y-84076441D01*
X74006771Y-84078229D01*
X74013701Y-84080709D01*
X74020355Y-84083856D01*
X74026668Y-84087640D01*
X74032579Y-84092024D01*
X74038033Y-84096967D01*
X74042976Y-84102421D01*
X74047360Y-84108332D01*
X74051144Y-84114645D01*
X74054291Y-84121299D01*
X74056771Y-84128229D01*
X74058559Y-84135368D01*
X74059639Y-84142649D01*
X74060000Y-84150000D01*
X74060000Y-84850000D01*
X74059639Y-84857351D01*
X74058559Y-84864632D01*
X74056771Y-84871771D01*
X74054291Y-84878701D01*
X74051144Y-84885355D01*
X74047360Y-84891668D01*
X74042976Y-84897579D01*
X74038033Y-84903033D01*
X74032579Y-84907976D01*
X74026668Y-84912360D01*
X74020355Y-84916144D01*
X74013701Y-84919291D01*
X74006771Y-84921771D01*
X73999632Y-84923559D01*
X73992351Y-84924639D01*
X73985000Y-84925000D01*
X73835000Y-84925000D01*
X73827649Y-84924639D01*
X73820368Y-84923559D01*
X73813229Y-84921771D01*
X73806299Y-84919291D01*
X73799645Y-84916144D01*
X73793332Y-84912360D01*
X73787421Y-84907976D01*
X73781967Y-84903033D01*
X73777024Y-84897579D01*
X73772640Y-84891668D01*
X73768856Y-84885355D01*
X73765709Y-84878701D01*
X73763229Y-84871771D01*
X73761441Y-84864632D01*
X73760361Y-84857351D01*
X73760000Y-84850000D01*
X73760000Y-84150000D01*
X73760361Y-84142649D01*
X73761441Y-84135368D01*
X73763229Y-84128229D01*
X73765709Y-84121299D01*
X73768856Y-84114645D01*
X73772640Y-84108332D01*
X73777024Y-84102421D01*
X73781967Y-84096967D01*
X73787421Y-84092024D01*
X73793332Y-84087640D01*
X73799645Y-84083856D01*
X73806299Y-84080709D01*
X73813229Y-84078229D01*
X73820368Y-84076441D01*
X73827649Y-84075361D01*
X73835000Y-84075000D01*
X73985000Y-84075000D01*
X73992351Y-84075361D01*
G37*
G36*
X73492351Y-84075361D02*
G01*
X73499632Y-84076441D01*
X73506771Y-84078229D01*
X73513701Y-84080709D01*
X73520355Y-84083856D01*
X73526668Y-84087640D01*
X73532579Y-84092024D01*
X73538033Y-84096967D01*
X73542976Y-84102421D01*
X73547360Y-84108332D01*
X73551144Y-84114645D01*
X73554291Y-84121299D01*
X73556771Y-84128229D01*
X73558559Y-84135368D01*
X73559639Y-84142649D01*
X73560000Y-84150000D01*
X73560000Y-84850000D01*
X73559639Y-84857351D01*
X73558559Y-84864632D01*
X73556771Y-84871771D01*
X73554291Y-84878701D01*
X73551144Y-84885355D01*
X73547360Y-84891668D01*
X73542976Y-84897579D01*
X73538033Y-84903033D01*
X73532579Y-84907976D01*
X73526668Y-84912360D01*
X73520355Y-84916144D01*
X73513701Y-84919291D01*
X73506771Y-84921771D01*
X73499632Y-84923559D01*
X73492351Y-84924639D01*
X73485000Y-84925000D01*
X73335000Y-84925000D01*
X73327649Y-84924639D01*
X73320368Y-84923559D01*
X73313229Y-84921771D01*
X73306299Y-84919291D01*
X73299645Y-84916144D01*
X73293332Y-84912360D01*
X73287421Y-84907976D01*
X73281967Y-84903033D01*
X73277024Y-84897579D01*
X73272640Y-84891668D01*
X73268856Y-84885355D01*
X73265709Y-84878701D01*
X73263229Y-84871771D01*
X73261441Y-84864632D01*
X73260361Y-84857351D01*
X73260000Y-84850000D01*
X73260000Y-84150000D01*
X73260361Y-84142649D01*
X73261441Y-84135368D01*
X73263229Y-84128229D01*
X73265709Y-84121299D01*
X73268856Y-84114645D01*
X73272640Y-84108332D01*
X73277024Y-84102421D01*
X73281967Y-84096967D01*
X73287421Y-84092024D01*
X73293332Y-84087640D01*
X73299645Y-84083856D01*
X73306299Y-84080709D01*
X73313229Y-84078229D01*
X73320368Y-84076441D01*
X73327649Y-84075361D01*
X73335000Y-84075000D01*
X73485000Y-84075000D01*
X73492351Y-84075361D01*
G37*
G36*
X72992351Y-84075361D02*
G01*
X72999632Y-84076441D01*
X73006771Y-84078229D01*
X73013701Y-84080709D01*
X73020355Y-84083856D01*
X73026668Y-84087640D01*
X73032579Y-84092024D01*
X73038033Y-84096967D01*
X73042976Y-84102421D01*
X73047360Y-84108332D01*
X73051144Y-84114645D01*
X73054291Y-84121299D01*
X73056771Y-84128229D01*
X73058559Y-84135368D01*
X73059639Y-84142649D01*
X73060000Y-84150000D01*
X73060000Y-84850000D01*
X73059639Y-84857351D01*
X73058559Y-84864632D01*
X73056771Y-84871771D01*
X73054291Y-84878701D01*
X73051144Y-84885355D01*
X73047360Y-84891668D01*
X73042976Y-84897579D01*
X73038033Y-84903033D01*
X73032579Y-84907976D01*
X73026668Y-84912360D01*
X73020355Y-84916144D01*
X73013701Y-84919291D01*
X73006771Y-84921771D01*
X72999632Y-84923559D01*
X72992351Y-84924639D01*
X72985000Y-84925000D01*
X72835000Y-84925000D01*
X72827649Y-84924639D01*
X72820368Y-84923559D01*
X72813229Y-84921771D01*
X72806299Y-84919291D01*
X72799645Y-84916144D01*
X72793332Y-84912360D01*
X72787421Y-84907976D01*
X72781967Y-84903033D01*
X72777024Y-84897579D01*
X72772640Y-84891668D01*
X72768856Y-84885355D01*
X72765709Y-84878701D01*
X72763229Y-84871771D01*
X72761441Y-84864632D01*
X72760361Y-84857351D01*
X72760000Y-84850000D01*
X72760000Y-84150000D01*
X72760361Y-84142649D01*
X72761441Y-84135368D01*
X72763229Y-84128229D01*
X72765709Y-84121299D01*
X72768856Y-84114645D01*
X72772640Y-84108332D01*
X72777024Y-84102421D01*
X72781967Y-84096967D01*
X72787421Y-84092024D01*
X72793332Y-84087640D01*
X72799645Y-84083856D01*
X72806299Y-84080709D01*
X72813229Y-84078229D01*
X72820368Y-84076441D01*
X72827649Y-84075361D01*
X72835000Y-84075000D01*
X72985000Y-84075000D01*
X72992351Y-84075361D01*
G37*
G36*
X72492351Y-84075361D02*
G01*
X72499632Y-84076441D01*
X72506771Y-84078229D01*
X72513701Y-84080709D01*
X72520355Y-84083856D01*
X72526668Y-84087640D01*
X72532579Y-84092024D01*
X72538033Y-84096967D01*
X72542976Y-84102421D01*
X72547360Y-84108332D01*
X72551144Y-84114645D01*
X72554291Y-84121299D01*
X72556771Y-84128229D01*
X72558559Y-84135368D01*
X72559639Y-84142649D01*
X72560000Y-84150000D01*
X72560000Y-84850000D01*
X72559639Y-84857351D01*
X72558559Y-84864632D01*
X72556771Y-84871771D01*
X72554291Y-84878701D01*
X72551144Y-84885355D01*
X72547360Y-84891668D01*
X72542976Y-84897579D01*
X72538033Y-84903033D01*
X72532579Y-84907976D01*
X72526668Y-84912360D01*
X72520355Y-84916144D01*
X72513701Y-84919291D01*
X72506771Y-84921771D01*
X72499632Y-84923559D01*
X72492351Y-84924639D01*
X72485000Y-84925000D01*
X72335000Y-84925000D01*
X72327649Y-84924639D01*
X72320368Y-84923559D01*
X72313229Y-84921771D01*
X72306299Y-84919291D01*
X72299645Y-84916144D01*
X72293332Y-84912360D01*
X72287421Y-84907976D01*
X72281967Y-84903033D01*
X72277024Y-84897579D01*
X72272640Y-84891668D01*
X72268856Y-84885355D01*
X72265709Y-84878701D01*
X72263229Y-84871771D01*
X72261441Y-84864632D01*
X72260361Y-84857351D01*
X72260000Y-84850000D01*
X72260000Y-84150000D01*
X72260361Y-84142649D01*
X72261441Y-84135368D01*
X72263229Y-84128229D01*
X72265709Y-84121299D01*
X72268856Y-84114645D01*
X72272640Y-84108332D01*
X72277024Y-84102421D01*
X72281967Y-84096967D01*
X72287421Y-84092024D01*
X72293332Y-84087640D01*
X72299645Y-84083856D01*
X72306299Y-84080709D01*
X72313229Y-84078229D01*
X72320368Y-84076441D01*
X72327649Y-84075361D01*
X72335000Y-84075000D01*
X72485000Y-84075000D01*
X72492351Y-84075361D01*
G37*
G36*
X72067351Y-83650361D02*
G01*
X72074632Y-83651441D01*
X72081771Y-83653229D01*
X72088701Y-83655709D01*
X72095355Y-83658856D01*
X72101668Y-83662640D01*
X72107579Y-83667024D01*
X72113033Y-83671967D01*
X72117976Y-83677421D01*
X72122360Y-83683332D01*
X72126144Y-83689645D01*
X72129291Y-83696299D01*
X72131771Y-83703229D01*
X72133559Y-83710368D01*
X72134639Y-83717649D01*
X72135000Y-83725000D01*
X72135000Y-83875000D01*
X72134639Y-83882351D01*
X72133559Y-83889632D01*
X72131771Y-83896771D01*
X72129291Y-83903701D01*
X72126144Y-83910355D01*
X72122360Y-83916668D01*
X72117976Y-83922579D01*
X72113033Y-83928033D01*
X72107579Y-83932976D01*
X72101668Y-83937360D01*
X72095355Y-83941144D01*
X72088701Y-83944291D01*
X72081771Y-83946771D01*
X72074632Y-83948559D01*
X72067351Y-83949639D01*
X72060000Y-83950000D01*
X71360000Y-83950000D01*
X71352649Y-83949639D01*
X71345368Y-83948559D01*
X71338229Y-83946771D01*
X71331299Y-83944291D01*
X71324645Y-83941144D01*
X71318332Y-83937360D01*
X71312421Y-83932976D01*
X71306967Y-83928033D01*
X71302024Y-83922579D01*
X71297640Y-83916668D01*
X71293856Y-83910355D01*
X71290709Y-83903701D01*
X71288229Y-83896771D01*
X71286441Y-83889632D01*
X71285361Y-83882351D01*
X71285000Y-83875000D01*
X71285000Y-83725000D01*
X71285361Y-83717649D01*
X71286441Y-83710368D01*
X71288229Y-83703229D01*
X71290709Y-83696299D01*
X71293856Y-83689645D01*
X71297640Y-83683332D01*
X71302024Y-83677421D01*
X71306967Y-83671967D01*
X71312421Y-83667024D01*
X71318332Y-83662640D01*
X71324645Y-83658856D01*
X71331299Y-83655709D01*
X71338229Y-83653229D01*
X71345368Y-83651441D01*
X71352649Y-83650361D01*
X71360000Y-83650000D01*
X72060000Y-83650000D01*
X72067351Y-83650361D01*
G37*
G36*
X72067351Y-83150361D02*
G01*
X72074632Y-83151441D01*
X72081771Y-83153229D01*
X72088701Y-83155709D01*
X72095355Y-83158856D01*
X72101668Y-83162640D01*
X72107579Y-83167024D01*
X72113033Y-83171967D01*
X72117976Y-83177421D01*
X72122360Y-83183332D01*
X72126144Y-83189645D01*
X72129291Y-83196299D01*
X72131771Y-83203229D01*
X72133559Y-83210368D01*
X72134639Y-83217649D01*
X72135000Y-83225000D01*
X72135000Y-83375000D01*
X72134639Y-83382351D01*
X72133559Y-83389632D01*
X72131771Y-83396771D01*
X72129291Y-83403701D01*
X72126144Y-83410355D01*
X72122360Y-83416668D01*
X72117976Y-83422579D01*
X72113033Y-83428033D01*
X72107579Y-83432976D01*
X72101668Y-83437360D01*
X72095355Y-83441144D01*
X72088701Y-83444291D01*
X72081771Y-83446771D01*
X72074632Y-83448559D01*
X72067351Y-83449639D01*
X72060000Y-83450000D01*
X71360000Y-83450000D01*
X71352649Y-83449639D01*
X71345368Y-83448559D01*
X71338229Y-83446771D01*
X71331299Y-83444291D01*
X71324645Y-83441144D01*
X71318332Y-83437360D01*
X71312421Y-83432976D01*
X71306967Y-83428033D01*
X71302024Y-83422579D01*
X71297640Y-83416668D01*
X71293856Y-83410355D01*
X71290709Y-83403701D01*
X71288229Y-83396771D01*
X71286441Y-83389632D01*
X71285361Y-83382351D01*
X71285000Y-83375000D01*
X71285000Y-83225000D01*
X71285361Y-83217649D01*
X71286441Y-83210368D01*
X71288229Y-83203229D01*
X71290709Y-83196299D01*
X71293856Y-83189645D01*
X71297640Y-83183332D01*
X71302024Y-83177421D01*
X71306967Y-83171967D01*
X71312421Y-83167024D01*
X71318332Y-83162640D01*
X71324645Y-83158856D01*
X71331299Y-83155709D01*
X71338229Y-83153229D01*
X71345368Y-83151441D01*
X71352649Y-83150361D01*
X71360000Y-83150000D01*
X72060000Y-83150000D01*
X72067351Y-83150361D01*
G37*
G36*
X72067351Y-82650361D02*
G01*
X72074632Y-82651441D01*
X72081771Y-82653229D01*
X72088701Y-82655709D01*
X72095355Y-82658856D01*
X72101668Y-82662640D01*
X72107579Y-82667024D01*
X72113033Y-82671967D01*
X72117976Y-82677421D01*
X72122360Y-82683332D01*
X72126144Y-82689645D01*
X72129291Y-82696299D01*
X72131771Y-82703229D01*
X72133559Y-82710368D01*
X72134639Y-82717649D01*
X72135000Y-82725000D01*
X72135000Y-82875000D01*
X72134639Y-82882351D01*
X72133559Y-82889632D01*
X72131771Y-82896771D01*
X72129291Y-82903701D01*
X72126144Y-82910355D01*
X72122360Y-82916668D01*
X72117976Y-82922579D01*
X72113033Y-82928033D01*
X72107579Y-82932976D01*
X72101668Y-82937360D01*
X72095355Y-82941144D01*
X72088701Y-82944291D01*
X72081771Y-82946771D01*
X72074632Y-82948559D01*
X72067351Y-82949639D01*
X72060000Y-82950000D01*
X71360000Y-82950000D01*
X71352649Y-82949639D01*
X71345368Y-82948559D01*
X71338229Y-82946771D01*
X71331299Y-82944291D01*
X71324645Y-82941144D01*
X71318332Y-82937360D01*
X71312421Y-82932976D01*
X71306967Y-82928033D01*
X71302024Y-82922579D01*
X71297640Y-82916668D01*
X71293856Y-82910355D01*
X71290709Y-82903701D01*
X71288229Y-82896771D01*
X71286441Y-82889632D01*
X71285361Y-82882351D01*
X71285000Y-82875000D01*
X71285000Y-82725000D01*
X71285361Y-82717649D01*
X71286441Y-82710368D01*
X71288229Y-82703229D01*
X71290709Y-82696299D01*
X71293856Y-82689645D01*
X71297640Y-82683332D01*
X71302024Y-82677421D01*
X71306967Y-82671967D01*
X71312421Y-82667024D01*
X71318332Y-82662640D01*
X71324645Y-82658856D01*
X71331299Y-82655709D01*
X71338229Y-82653229D01*
X71345368Y-82651441D01*
X71352649Y-82650361D01*
X71360000Y-82650000D01*
X72060000Y-82650000D01*
X72067351Y-82650361D01*
G37*
G36*
X72067351Y-82150361D02*
G01*
X72074632Y-82151441D01*
X72081771Y-82153229D01*
X72088701Y-82155709D01*
X72095355Y-82158856D01*
X72101668Y-82162640D01*
X72107579Y-82167024D01*
X72113033Y-82171967D01*
X72117976Y-82177421D01*
X72122360Y-82183332D01*
X72126144Y-82189645D01*
X72129291Y-82196299D01*
X72131771Y-82203229D01*
X72133559Y-82210368D01*
X72134639Y-82217649D01*
X72135000Y-82225000D01*
X72135000Y-82375000D01*
X72134639Y-82382351D01*
X72133559Y-82389632D01*
X72131771Y-82396771D01*
X72129291Y-82403701D01*
X72126144Y-82410355D01*
X72122360Y-82416668D01*
X72117976Y-82422579D01*
X72113033Y-82428033D01*
X72107579Y-82432976D01*
X72101668Y-82437360D01*
X72095355Y-82441144D01*
X72088701Y-82444291D01*
X72081771Y-82446771D01*
X72074632Y-82448559D01*
X72067351Y-82449639D01*
X72060000Y-82450000D01*
X71360000Y-82450000D01*
X71352649Y-82449639D01*
X71345368Y-82448559D01*
X71338229Y-82446771D01*
X71331299Y-82444291D01*
X71324645Y-82441144D01*
X71318332Y-82437360D01*
X71312421Y-82432976D01*
X71306967Y-82428033D01*
X71302024Y-82422579D01*
X71297640Y-82416668D01*
X71293856Y-82410355D01*
X71290709Y-82403701D01*
X71288229Y-82396771D01*
X71286441Y-82389632D01*
X71285361Y-82382351D01*
X71285000Y-82375000D01*
X71285000Y-82225000D01*
X71285361Y-82217649D01*
X71286441Y-82210368D01*
X71288229Y-82203229D01*
X71290709Y-82196299D01*
X71293856Y-82189645D01*
X71297640Y-82183332D01*
X71302024Y-82177421D01*
X71306967Y-82171967D01*
X71312421Y-82167024D01*
X71318332Y-82162640D01*
X71324645Y-82158856D01*
X71331299Y-82155709D01*
X71338229Y-82153229D01*
X71345368Y-82151441D01*
X71352649Y-82150361D01*
X71360000Y-82150000D01*
X72060000Y-82150000D01*
X72067351Y-82150361D01*
G37*
G36*
X72067351Y-81650361D02*
G01*
X72074632Y-81651441D01*
X72081771Y-81653229D01*
X72088701Y-81655709D01*
X72095355Y-81658856D01*
X72101668Y-81662640D01*
X72107579Y-81667024D01*
X72113033Y-81671967D01*
X72117976Y-81677421D01*
X72122360Y-81683332D01*
X72126144Y-81689645D01*
X72129291Y-81696299D01*
X72131771Y-81703229D01*
X72133559Y-81710368D01*
X72134639Y-81717649D01*
X72135000Y-81725000D01*
X72135000Y-81875000D01*
X72134639Y-81882351D01*
X72133559Y-81889632D01*
X72131771Y-81896771D01*
X72129291Y-81903701D01*
X72126144Y-81910355D01*
X72122360Y-81916668D01*
X72117976Y-81922579D01*
X72113033Y-81928033D01*
X72107579Y-81932976D01*
X72101668Y-81937360D01*
X72095355Y-81941144D01*
X72088701Y-81944291D01*
X72081771Y-81946771D01*
X72074632Y-81948559D01*
X72067351Y-81949639D01*
X72060000Y-81950000D01*
X71360000Y-81950000D01*
X71352649Y-81949639D01*
X71345368Y-81948559D01*
X71338229Y-81946771D01*
X71331299Y-81944291D01*
X71324645Y-81941144D01*
X71318332Y-81937360D01*
X71312421Y-81932976D01*
X71306967Y-81928033D01*
X71302024Y-81922579D01*
X71297640Y-81916668D01*
X71293856Y-81910355D01*
X71290709Y-81903701D01*
X71288229Y-81896771D01*
X71286441Y-81889632D01*
X71285361Y-81882351D01*
X71285000Y-81875000D01*
X71285000Y-81725000D01*
X71285361Y-81717649D01*
X71286441Y-81710368D01*
X71288229Y-81703229D01*
X71290709Y-81696299D01*
X71293856Y-81689645D01*
X71297640Y-81683332D01*
X71302024Y-81677421D01*
X71306967Y-81671967D01*
X71312421Y-81667024D01*
X71318332Y-81662640D01*
X71324645Y-81658856D01*
X71331299Y-81655709D01*
X71338229Y-81653229D01*
X71345368Y-81651441D01*
X71352649Y-81650361D01*
X71360000Y-81650000D01*
X72060000Y-81650000D01*
X72067351Y-81650361D01*
G37*
G36*
X72067351Y-81150361D02*
G01*
X72074632Y-81151441D01*
X72081771Y-81153229D01*
X72088701Y-81155709D01*
X72095355Y-81158856D01*
X72101668Y-81162640D01*
X72107579Y-81167024D01*
X72113033Y-81171967D01*
X72117976Y-81177421D01*
X72122360Y-81183332D01*
X72126144Y-81189645D01*
X72129291Y-81196299D01*
X72131771Y-81203229D01*
X72133559Y-81210368D01*
X72134639Y-81217649D01*
X72135000Y-81225000D01*
X72135000Y-81375000D01*
X72134639Y-81382351D01*
X72133559Y-81389632D01*
X72131771Y-81396771D01*
X72129291Y-81403701D01*
X72126144Y-81410355D01*
X72122360Y-81416668D01*
X72117976Y-81422579D01*
X72113033Y-81428033D01*
X72107579Y-81432976D01*
X72101668Y-81437360D01*
X72095355Y-81441144D01*
X72088701Y-81444291D01*
X72081771Y-81446771D01*
X72074632Y-81448559D01*
X72067351Y-81449639D01*
X72060000Y-81450000D01*
X71360000Y-81450000D01*
X71352649Y-81449639D01*
X71345368Y-81448559D01*
X71338229Y-81446771D01*
X71331299Y-81444291D01*
X71324645Y-81441144D01*
X71318332Y-81437360D01*
X71312421Y-81432976D01*
X71306967Y-81428033D01*
X71302024Y-81422579D01*
X71297640Y-81416668D01*
X71293856Y-81410355D01*
X71290709Y-81403701D01*
X71288229Y-81396771D01*
X71286441Y-81389632D01*
X71285361Y-81382351D01*
X71285000Y-81375000D01*
X71285000Y-81225000D01*
X71285361Y-81217649D01*
X71286441Y-81210368D01*
X71288229Y-81203229D01*
X71290709Y-81196299D01*
X71293856Y-81189645D01*
X71297640Y-81183332D01*
X71302024Y-81177421D01*
X71306967Y-81171967D01*
X71312421Y-81167024D01*
X71318332Y-81162640D01*
X71324645Y-81158856D01*
X71331299Y-81155709D01*
X71338229Y-81153229D01*
X71345368Y-81151441D01*
X71352649Y-81150361D01*
X71360000Y-81150000D01*
X72060000Y-81150000D01*
X72067351Y-81150361D01*
G37*
G36*
X72492351Y-80175361D02*
G01*
X72499632Y-80176441D01*
X72506771Y-80178229D01*
X72513701Y-80180709D01*
X72520355Y-80183856D01*
X72526668Y-80187640D01*
X72532579Y-80192024D01*
X72538033Y-80196967D01*
X72542976Y-80202421D01*
X72547360Y-80208332D01*
X72551144Y-80214645D01*
X72554291Y-80221299D01*
X72556771Y-80228229D01*
X72558559Y-80235368D01*
X72559639Y-80242649D01*
X72560000Y-80250000D01*
X72560000Y-80950000D01*
X72559639Y-80957351D01*
X72558559Y-80964632D01*
X72556771Y-80971771D01*
X72554291Y-80978701D01*
X72551144Y-80985355D01*
X72547360Y-80991668D01*
X72542976Y-80997579D01*
X72538033Y-81003033D01*
X72532579Y-81007976D01*
X72526668Y-81012360D01*
X72520355Y-81016144D01*
X72513701Y-81019291D01*
X72506771Y-81021771D01*
X72499632Y-81023559D01*
X72492351Y-81024639D01*
X72485000Y-81025000D01*
X72335000Y-81025000D01*
X72327649Y-81024639D01*
X72320368Y-81023559D01*
X72313229Y-81021771D01*
X72306299Y-81019291D01*
X72299645Y-81016144D01*
X72293332Y-81012360D01*
X72287421Y-81007976D01*
X72281967Y-81003033D01*
X72277024Y-80997579D01*
X72272640Y-80991668D01*
X72268856Y-80985355D01*
X72265709Y-80978701D01*
X72263229Y-80971771D01*
X72261441Y-80964632D01*
X72260361Y-80957351D01*
X72260000Y-80950000D01*
X72260000Y-80250000D01*
X72260361Y-80242649D01*
X72261441Y-80235368D01*
X72263229Y-80228229D01*
X72265709Y-80221299D01*
X72268856Y-80214645D01*
X72272640Y-80208332D01*
X72277024Y-80202421D01*
X72281967Y-80196967D01*
X72287421Y-80192024D01*
X72293332Y-80187640D01*
X72299645Y-80183856D01*
X72306299Y-80180709D01*
X72313229Y-80178229D01*
X72320368Y-80176441D01*
X72327649Y-80175361D01*
X72335000Y-80175000D01*
X72485000Y-80175000D01*
X72492351Y-80175361D01*
G37*
G36*
X72992351Y-80175361D02*
G01*
X72999632Y-80176441D01*
X73006771Y-80178229D01*
X73013701Y-80180709D01*
X73020355Y-80183856D01*
X73026668Y-80187640D01*
X73032579Y-80192024D01*
X73038033Y-80196967D01*
X73042976Y-80202421D01*
X73047360Y-80208332D01*
X73051144Y-80214645D01*
X73054291Y-80221299D01*
X73056771Y-80228229D01*
X73058559Y-80235368D01*
X73059639Y-80242649D01*
X73060000Y-80250000D01*
X73060000Y-80950000D01*
X73059639Y-80957351D01*
X73058559Y-80964632D01*
X73056771Y-80971771D01*
X73054291Y-80978701D01*
X73051144Y-80985355D01*
X73047360Y-80991668D01*
X73042976Y-80997579D01*
X73038033Y-81003033D01*
X73032579Y-81007976D01*
X73026668Y-81012360D01*
X73020355Y-81016144D01*
X73013701Y-81019291D01*
X73006771Y-81021771D01*
X72999632Y-81023559D01*
X72992351Y-81024639D01*
X72985000Y-81025000D01*
X72835000Y-81025000D01*
X72827649Y-81024639D01*
X72820368Y-81023559D01*
X72813229Y-81021771D01*
X72806299Y-81019291D01*
X72799645Y-81016144D01*
X72793332Y-81012360D01*
X72787421Y-81007976D01*
X72781967Y-81003033D01*
X72777024Y-80997579D01*
X72772640Y-80991668D01*
X72768856Y-80985355D01*
X72765709Y-80978701D01*
X72763229Y-80971771D01*
X72761441Y-80964632D01*
X72760361Y-80957351D01*
X72760000Y-80950000D01*
X72760000Y-80250000D01*
X72760361Y-80242649D01*
X72761441Y-80235368D01*
X72763229Y-80228229D01*
X72765709Y-80221299D01*
X72768856Y-80214645D01*
X72772640Y-80208332D01*
X72777024Y-80202421D01*
X72781967Y-80196967D01*
X72787421Y-80192024D01*
X72793332Y-80187640D01*
X72799645Y-80183856D01*
X72806299Y-80180709D01*
X72813229Y-80178229D01*
X72820368Y-80176441D01*
X72827649Y-80175361D01*
X72835000Y-80175000D01*
X72985000Y-80175000D01*
X72992351Y-80175361D01*
G37*
G36*
X73492351Y-80175361D02*
G01*
X73499632Y-80176441D01*
X73506771Y-80178229D01*
X73513701Y-80180709D01*
X73520355Y-80183856D01*
X73526668Y-80187640D01*
X73532579Y-80192024D01*
X73538033Y-80196967D01*
X73542976Y-80202421D01*
X73547360Y-80208332D01*
X73551144Y-80214645D01*
X73554291Y-80221299D01*
X73556771Y-80228229D01*
X73558559Y-80235368D01*
X73559639Y-80242649D01*
X73560000Y-80250000D01*
X73560000Y-80950000D01*
X73559639Y-80957351D01*
X73558559Y-80964632D01*
X73556771Y-80971771D01*
X73554291Y-80978701D01*
X73551144Y-80985355D01*
X73547360Y-80991668D01*
X73542976Y-80997579D01*
X73538033Y-81003033D01*
X73532579Y-81007976D01*
X73526668Y-81012360D01*
X73520355Y-81016144D01*
X73513701Y-81019291D01*
X73506771Y-81021771D01*
X73499632Y-81023559D01*
X73492351Y-81024639D01*
X73485000Y-81025000D01*
X73335000Y-81025000D01*
X73327649Y-81024639D01*
X73320368Y-81023559D01*
X73313229Y-81021771D01*
X73306299Y-81019291D01*
X73299645Y-81016144D01*
X73293332Y-81012360D01*
X73287421Y-81007976D01*
X73281967Y-81003033D01*
X73277024Y-80997579D01*
X73272640Y-80991668D01*
X73268856Y-80985355D01*
X73265709Y-80978701D01*
X73263229Y-80971771D01*
X73261441Y-80964632D01*
X73260361Y-80957351D01*
X73260000Y-80950000D01*
X73260000Y-80250000D01*
X73260361Y-80242649D01*
X73261441Y-80235368D01*
X73263229Y-80228229D01*
X73265709Y-80221299D01*
X73268856Y-80214645D01*
X73272640Y-80208332D01*
X73277024Y-80202421D01*
X73281967Y-80196967D01*
X73287421Y-80192024D01*
X73293332Y-80187640D01*
X73299645Y-80183856D01*
X73306299Y-80180709D01*
X73313229Y-80178229D01*
X73320368Y-80176441D01*
X73327649Y-80175361D01*
X73335000Y-80175000D01*
X73485000Y-80175000D01*
X73492351Y-80175361D01*
G37*
G36*
X73992351Y-80175361D02*
G01*
X73999632Y-80176441D01*
X74006771Y-80178229D01*
X74013701Y-80180709D01*
X74020355Y-80183856D01*
X74026668Y-80187640D01*
X74032579Y-80192024D01*
X74038033Y-80196967D01*
X74042976Y-80202421D01*
X74047360Y-80208332D01*
X74051144Y-80214645D01*
X74054291Y-80221299D01*
X74056771Y-80228229D01*
X74058559Y-80235368D01*
X74059639Y-80242649D01*
X74060000Y-80250000D01*
X74060000Y-80950000D01*
X74059639Y-80957351D01*
X74058559Y-80964632D01*
X74056771Y-80971771D01*
X74054291Y-80978701D01*
X74051144Y-80985355D01*
X74047360Y-80991668D01*
X74042976Y-80997579D01*
X74038033Y-81003033D01*
X74032579Y-81007976D01*
X74026668Y-81012360D01*
X74020355Y-81016144D01*
X74013701Y-81019291D01*
X74006771Y-81021771D01*
X73999632Y-81023559D01*
X73992351Y-81024639D01*
X73985000Y-81025000D01*
X73835000Y-81025000D01*
X73827649Y-81024639D01*
X73820368Y-81023559D01*
X73813229Y-81021771D01*
X73806299Y-81019291D01*
X73799645Y-81016144D01*
X73793332Y-81012360D01*
X73787421Y-81007976D01*
X73781967Y-81003033D01*
X73777024Y-80997579D01*
X73772640Y-80991668D01*
X73768856Y-80985355D01*
X73765709Y-80978701D01*
X73763229Y-80971771D01*
X73761441Y-80964632D01*
X73760361Y-80957351D01*
X73760000Y-80950000D01*
X73760000Y-80250000D01*
X73760361Y-80242649D01*
X73761441Y-80235368D01*
X73763229Y-80228229D01*
X73765709Y-80221299D01*
X73768856Y-80214645D01*
X73772640Y-80208332D01*
X73777024Y-80202421D01*
X73781967Y-80196967D01*
X73787421Y-80192024D01*
X73793332Y-80187640D01*
X73799645Y-80183856D01*
X73806299Y-80180709D01*
X73813229Y-80178229D01*
X73820368Y-80176441D01*
X73827649Y-80175361D01*
X73835000Y-80175000D01*
X73985000Y-80175000D01*
X73992351Y-80175361D01*
G37*
G36*
X74492351Y-80175361D02*
G01*
X74499632Y-80176441D01*
X74506771Y-80178229D01*
X74513701Y-80180709D01*
X74520355Y-80183856D01*
X74526668Y-80187640D01*
X74532579Y-80192024D01*
X74538033Y-80196967D01*
X74542976Y-80202421D01*
X74547360Y-80208332D01*
X74551144Y-80214645D01*
X74554291Y-80221299D01*
X74556771Y-80228229D01*
X74558559Y-80235368D01*
X74559639Y-80242649D01*
X74560000Y-80250000D01*
X74560000Y-80950000D01*
X74559639Y-80957351D01*
X74558559Y-80964632D01*
X74556771Y-80971771D01*
X74554291Y-80978701D01*
X74551144Y-80985355D01*
X74547360Y-80991668D01*
X74542976Y-80997579D01*
X74538033Y-81003033D01*
X74532579Y-81007976D01*
X74526668Y-81012360D01*
X74520355Y-81016144D01*
X74513701Y-81019291D01*
X74506771Y-81021771D01*
X74499632Y-81023559D01*
X74492351Y-81024639D01*
X74485000Y-81025000D01*
X74335000Y-81025000D01*
X74327649Y-81024639D01*
X74320368Y-81023559D01*
X74313229Y-81021771D01*
X74306299Y-81019291D01*
X74299645Y-81016144D01*
X74293332Y-81012360D01*
X74287421Y-81007976D01*
X74281967Y-81003033D01*
X74277024Y-80997579D01*
X74272640Y-80991668D01*
X74268856Y-80985355D01*
X74265709Y-80978701D01*
X74263229Y-80971771D01*
X74261441Y-80964632D01*
X74260361Y-80957351D01*
X74260000Y-80950000D01*
X74260000Y-80250000D01*
X74260361Y-80242649D01*
X74261441Y-80235368D01*
X74263229Y-80228229D01*
X74265709Y-80221299D01*
X74268856Y-80214645D01*
X74272640Y-80208332D01*
X74277024Y-80202421D01*
X74281967Y-80196967D01*
X74287421Y-80192024D01*
X74293332Y-80187640D01*
X74299645Y-80183856D01*
X74306299Y-80180709D01*
X74313229Y-80178229D01*
X74320368Y-80176441D01*
X74327649Y-80175361D01*
X74335000Y-80175000D01*
X74485000Y-80175000D01*
X74492351Y-80175361D01*
G37*
G36*
X74992351Y-80175361D02*
G01*
X74999632Y-80176441D01*
X75006771Y-80178229D01*
X75013701Y-80180709D01*
X75020355Y-80183856D01*
X75026668Y-80187640D01*
X75032579Y-80192024D01*
X75038033Y-80196967D01*
X75042976Y-80202421D01*
X75047360Y-80208332D01*
X75051144Y-80214645D01*
X75054291Y-80221299D01*
X75056771Y-80228229D01*
X75058559Y-80235368D01*
X75059639Y-80242649D01*
X75060000Y-80250000D01*
X75060000Y-80950000D01*
X75059639Y-80957351D01*
X75058559Y-80964632D01*
X75056771Y-80971771D01*
X75054291Y-80978701D01*
X75051144Y-80985355D01*
X75047360Y-80991668D01*
X75042976Y-80997579D01*
X75038033Y-81003033D01*
X75032579Y-81007976D01*
X75026668Y-81012360D01*
X75020355Y-81016144D01*
X75013701Y-81019291D01*
X75006771Y-81021771D01*
X74999632Y-81023559D01*
X74992351Y-81024639D01*
X74985000Y-81025000D01*
X74835000Y-81025000D01*
X74827649Y-81024639D01*
X74820368Y-81023559D01*
X74813229Y-81021771D01*
X74806299Y-81019291D01*
X74799645Y-81016144D01*
X74793332Y-81012360D01*
X74787421Y-81007976D01*
X74781967Y-81003033D01*
X74777024Y-80997579D01*
X74772640Y-80991668D01*
X74768856Y-80985355D01*
X74765709Y-80978701D01*
X74763229Y-80971771D01*
X74761441Y-80964632D01*
X74760361Y-80957351D01*
X74760000Y-80950000D01*
X74760000Y-80250000D01*
X74760361Y-80242649D01*
X74761441Y-80235368D01*
X74763229Y-80228229D01*
X74765709Y-80221299D01*
X74768856Y-80214645D01*
X74772640Y-80208332D01*
X74777024Y-80202421D01*
X74781967Y-80196967D01*
X74787421Y-80192024D01*
X74793332Y-80187640D01*
X74799645Y-80183856D01*
X74806299Y-80180709D01*
X74813229Y-80178229D01*
X74820368Y-80176441D01*
X74827649Y-80175361D01*
X74835000Y-80175000D01*
X74985000Y-80175000D01*
X74992351Y-80175361D01*
G37*
G36*
X75967351Y-81150361D02*
G01*
X75974632Y-81151441D01*
X75981771Y-81153229D01*
X75988701Y-81155709D01*
X75995355Y-81158856D01*
X76001668Y-81162640D01*
X76007579Y-81167024D01*
X76013033Y-81171967D01*
X76017976Y-81177421D01*
X76022360Y-81183332D01*
X76026144Y-81189645D01*
X76029291Y-81196299D01*
X76031771Y-81203229D01*
X76033559Y-81210368D01*
X76034639Y-81217649D01*
X76035000Y-81225000D01*
X76035000Y-81375000D01*
X76034639Y-81382351D01*
X76033559Y-81389632D01*
X76031771Y-81396771D01*
X76029291Y-81403701D01*
X76026144Y-81410355D01*
X76022360Y-81416668D01*
X76017976Y-81422579D01*
X76013033Y-81428033D01*
X76007579Y-81432976D01*
X76001668Y-81437360D01*
X75995355Y-81441144D01*
X75988701Y-81444291D01*
X75981771Y-81446771D01*
X75974632Y-81448559D01*
X75967351Y-81449639D01*
X75960000Y-81450000D01*
X75260000Y-81450000D01*
X75252649Y-81449639D01*
X75245368Y-81448559D01*
X75238229Y-81446771D01*
X75231299Y-81444291D01*
X75224645Y-81441144D01*
X75218332Y-81437360D01*
X75212421Y-81432976D01*
X75206967Y-81428033D01*
X75202024Y-81422579D01*
X75197640Y-81416668D01*
X75193856Y-81410355D01*
X75190709Y-81403701D01*
X75188229Y-81396771D01*
X75186441Y-81389632D01*
X75185361Y-81382351D01*
X75185000Y-81375000D01*
X75185000Y-81225000D01*
X75185361Y-81217649D01*
X75186441Y-81210368D01*
X75188229Y-81203229D01*
X75190709Y-81196299D01*
X75193856Y-81189645D01*
X75197640Y-81183332D01*
X75202024Y-81177421D01*
X75206967Y-81171967D01*
X75212421Y-81167024D01*
X75218332Y-81162640D01*
X75224645Y-81158856D01*
X75231299Y-81155709D01*
X75238229Y-81153229D01*
X75245368Y-81151441D01*
X75252649Y-81150361D01*
X75260000Y-81150000D01*
X75960000Y-81150000D01*
X75967351Y-81150361D01*
G37*
G36*
X75967351Y-81650361D02*
G01*
X75974632Y-81651441D01*
X75981771Y-81653229D01*
X75988701Y-81655709D01*
X75995355Y-81658856D01*
X76001668Y-81662640D01*
X76007579Y-81667024D01*
X76013033Y-81671967D01*
X76017976Y-81677421D01*
X76022360Y-81683332D01*
X76026144Y-81689645D01*
X76029291Y-81696299D01*
X76031771Y-81703229D01*
X76033559Y-81710368D01*
X76034639Y-81717649D01*
X76035000Y-81725000D01*
X76035000Y-81875000D01*
X76034639Y-81882351D01*
X76033559Y-81889632D01*
X76031771Y-81896771D01*
X76029291Y-81903701D01*
X76026144Y-81910355D01*
X76022360Y-81916668D01*
X76017976Y-81922579D01*
X76013033Y-81928033D01*
X76007579Y-81932976D01*
X76001668Y-81937360D01*
X75995355Y-81941144D01*
X75988701Y-81944291D01*
X75981771Y-81946771D01*
X75974632Y-81948559D01*
X75967351Y-81949639D01*
X75960000Y-81950000D01*
X75260000Y-81950000D01*
X75252649Y-81949639D01*
X75245368Y-81948559D01*
X75238229Y-81946771D01*
X75231299Y-81944291D01*
X75224645Y-81941144D01*
X75218332Y-81937360D01*
X75212421Y-81932976D01*
X75206967Y-81928033D01*
X75202024Y-81922579D01*
X75197640Y-81916668D01*
X75193856Y-81910355D01*
X75190709Y-81903701D01*
X75188229Y-81896771D01*
X75186441Y-81889632D01*
X75185361Y-81882351D01*
X75185000Y-81875000D01*
X75185000Y-81725000D01*
X75185361Y-81717649D01*
X75186441Y-81710368D01*
X75188229Y-81703229D01*
X75190709Y-81696299D01*
X75193856Y-81689645D01*
X75197640Y-81683332D01*
X75202024Y-81677421D01*
X75206967Y-81671967D01*
X75212421Y-81667024D01*
X75218332Y-81662640D01*
X75224645Y-81658856D01*
X75231299Y-81655709D01*
X75238229Y-81653229D01*
X75245368Y-81651441D01*
X75252649Y-81650361D01*
X75260000Y-81650000D01*
X75960000Y-81650000D01*
X75967351Y-81650361D01*
G37*
G36*
X75967351Y-82150361D02*
G01*
X75974632Y-82151441D01*
X75981771Y-82153229D01*
X75988701Y-82155709D01*
X75995355Y-82158856D01*
X76001668Y-82162640D01*
X76007579Y-82167024D01*
X76013033Y-82171967D01*
X76017976Y-82177421D01*
X76022360Y-82183332D01*
X76026144Y-82189645D01*
X76029291Y-82196299D01*
X76031771Y-82203229D01*
X76033559Y-82210368D01*
X76034639Y-82217649D01*
X76035000Y-82225000D01*
X76035000Y-82375000D01*
X76034639Y-82382351D01*
X76033559Y-82389632D01*
X76031771Y-82396771D01*
X76029291Y-82403701D01*
X76026144Y-82410355D01*
X76022360Y-82416668D01*
X76017976Y-82422579D01*
X76013033Y-82428033D01*
X76007579Y-82432976D01*
X76001668Y-82437360D01*
X75995355Y-82441144D01*
X75988701Y-82444291D01*
X75981771Y-82446771D01*
X75974632Y-82448559D01*
X75967351Y-82449639D01*
X75960000Y-82450000D01*
X75260000Y-82450000D01*
X75252649Y-82449639D01*
X75245368Y-82448559D01*
X75238229Y-82446771D01*
X75231299Y-82444291D01*
X75224645Y-82441144D01*
X75218332Y-82437360D01*
X75212421Y-82432976D01*
X75206967Y-82428033D01*
X75202024Y-82422579D01*
X75197640Y-82416668D01*
X75193856Y-82410355D01*
X75190709Y-82403701D01*
X75188229Y-82396771D01*
X75186441Y-82389632D01*
X75185361Y-82382351D01*
X75185000Y-82375000D01*
X75185000Y-82225000D01*
X75185361Y-82217649D01*
X75186441Y-82210368D01*
X75188229Y-82203229D01*
X75190709Y-82196299D01*
X75193856Y-82189645D01*
X75197640Y-82183332D01*
X75202024Y-82177421D01*
X75206967Y-82171967D01*
X75212421Y-82167024D01*
X75218332Y-82162640D01*
X75224645Y-82158856D01*
X75231299Y-82155709D01*
X75238229Y-82153229D01*
X75245368Y-82151441D01*
X75252649Y-82150361D01*
X75260000Y-82150000D01*
X75960000Y-82150000D01*
X75967351Y-82150361D01*
G37*
G36*
X75967351Y-82650361D02*
G01*
X75974632Y-82651441D01*
X75981771Y-82653229D01*
X75988701Y-82655709D01*
X75995355Y-82658856D01*
X76001668Y-82662640D01*
X76007579Y-82667024D01*
X76013033Y-82671967D01*
X76017976Y-82677421D01*
X76022360Y-82683332D01*
X76026144Y-82689645D01*
X76029291Y-82696299D01*
X76031771Y-82703229D01*
X76033559Y-82710368D01*
X76034639Y-82717649D01*
X76035000Y-82725000D01*
X76035000Y-82875000D01*
X76034639Y-82882351D01*
X76033559Y-82889632D01*
X76031771Y-82896771D01*
X76029291Y-82903701D01*
X76026144Y-82910355D01*
X76022360Y-82916668D01*
X76017976Y-82922579D01*
X76013033Y-82928033D01*
X76007579Y-82932976D01*
X76001668Y-82937360D01*
X75995355Y-82941144D01*
X75988701Y-82944291D01*
X75981771Y-82946771D01*
X75974632Y-82948559D01*
X75967351Y-82949639D01*
X75960000Y-82950000D01*
X75260000Y-82950000D01*
X75252649Y-82949639D01*
X75245368Y-82948559D01*
X75238229Y-82946771D01*
X75231299Y-82944291D01*
X75224645Y-82941144D01*
X75218332Y-82937360D01*
X75212421Y-82932976D01*
X75206967Y-82928033D01*
X75202024Y-82922579D01*
X75197640Y-82916668D01*
X75193856Y-82910355D01*
X75190709Y-82903701D01*
X75188229Y-82896771D01*
X75186441Y-82889632D01*
X75185361Y-82882351D01*
X75185000Y-82875000D01*
X75185000Y-82725000D01*
X75185361Y-82717649D01*
X75186441Y-82710368D01*
X75188229Y-82703229D01*
X75190709Y-82696299D01*
X75193856Y-82689645D01*
X75197640Y-82683332D01*
X75202024Y-82677421D01*
X75206967Y-82671967D01*
X75212421Y-82667024D01*
X75218332Y-82662640D01*
X75224645Y-82658856D01*
X75231299Y-82655709D01*
X75238229Y-82653229D01*
X75245368Y-82651441D01*
X75252649Y-82650361D01*
X75260000Y-82650000D01*
X75960000Y-82650000D01*
X75967351Y-82650361D01*
G37*
G36*
X75967351Y-83150361D02*
G01*
X75974632Y-83151441D01*
X75981771Y-83153229D01*
X75988701Y-83155709D01*
X75995355Y-83158856D01*
X76001668Y-83162640D01*
X76007579Y-83167024D01*
X76013033Y-83171967D01*
X76017976Y-83177421D01*
X76022360Y-83183332D01*
X76026144Y-83189645D01*
X76029291Y-83196299D01*
X76031771Y-83203229D01*
X76033559Y-83210368D01*
X76034639Y-83217649D01*
X76035000Y-83225000D01*
X76035000Y-83375000D01*
X76034639Y-83382351D01*
X76033559Y-83389632D01*
X76031771Y-83396771D01*
X76029291Y-83403701D01*
X76026144Y-83410355D01*
X76022360Y-83416668D01*
X76017976Y-83422579D01*
X76013033Y-83428033D01*
X76007579Y-83432976D01*
X76001668Y-83437360D01*
X75995355Y-83441144D01*
X75988701Y-83444291D01*
X75981771Y-83446771D01*
X75974632Y-83448559D01*
X75967351Y-83449639D01*
X75960000Y-83450000D01*
X75260000Y-83450000D01*
X75252649Y-83449639D01*
X75245368Y-83448559D01*
X75238229Y-83446771D01*
X75231299Y-83444291D01*
X75224645Y-83441144D01*
X75218332Y-83437360D01*
X75212421Y-83432976D01*
X75206967Y-83428033D01*
X75202024Y-83422579D01*
X75197640Y-83416668D01*
X75193856Y-83410355D01*
X75190709Y-83403701D01*
X75188229Y-83396771D01*
X75186441Y-83389632D01*
X75185361Y-83382351D01*
X75185000Y-83375000D01*
X75185000Y-83225000D01*
X75185361Y-83217649D01*
X75186441Y-83210368D01*
X75188229Y-83203229D01*
X75190709Y-83196299D01*
X75193856Y-83189645D01*
X75197640Y-83183332D01*
X75202024Y-83177421D01*
X75206967Y-83171967D01*
X75212421Y-83167024D01*
X75218332Y-83162640D01*
X75224645Y-83158856D01*
X75231299Y-83155709D01*
X75238229Y-83153229D01*
X75245368Y-83151441D01*
X75252649Y-83150361D01*
X75260000Y-83150000D01*
X75960000Y-83150000D01*
X75967351Y-83150361D01*
G37*
G36*
X75967351Y-83650361D02*
G01*
X75974632Y-83651441D01*
X75981771Y-83653229D01*
X75988701Y-83655709D01*
X75995355Y-83658856D01*
X76001668Y-83662640D01*
X76007579Y-83667024D01*
X76013033Y-83671967D01*
X76017976Y-83677421D01*
X76022360Y-83683332D01*
X76026144Y-83689645D01*
X76029291Y-83696299D01*
X76031771Y-83703229D01*
X76033559Y-83710368D01*
X76034639Y-83717649D01*
X76035000Y-83725000D01*
X76035000Y-83875000D01*
X76034639Y-83882351D01*
X76033559Y-83889632D01*
X76031771Y-83896771D01*
X76029291Y-83903701D01*
X76026144Y-83910355D01*
X76022360Y-83916668D01*
X76017976Y-83922579D01*
X76013033Y-83928033D01*
X76007579Y-83932976D01*
X76001668Y-83937360D01*
X75995355Y-83941144D01*
X75988701Y-83944291D01*
X75981771Y-83946771D01*
X75974632Y-83948559D01*
X75967351Y-83949639D01*
X75960000Y-83950000D01*
X75260000Y-83950000D01*
X75252649Y-83949639D01*
X75245368Y-83948559D01*
X75238229Y-83946771D01*
X75231299Y-83944291D01*
X75224645Y-83941144D01*
X75218332Y-83937360D01*
X75212421Y-83932976D01*
X75206967Y-83928033D01*
X75202024Y-83922579D01*
X75197640Y-83916668D01*
X75193856Y-83910355D01*
X75190709Y-83903701D01*
X75188229Y-83896771D01*
X75186441Y-83889632D01*
X75185361Y-83882351D01*
X75185000Y-83875000D01*
X75185000Y-83725000D01*
X75185361Y-83717649D01*
X75186441Y-83710368D01*
X75188229Y-83703229D01*
X75190709Y-83696299D01*
X75193856Y-83689645D01*
X75197640Y-83683332D01*
X75202024Y-83677421D01*
X75206967Y-83671967D01*
X75212421Y-83667024D01*
X75218332Y-83662640D01*
X75224645Y-83658856D01*
X75231299Y-83655709D01*
X75238229Y-83653229D01*
X75245368Y-83651441D01*
X75252649Y-83650361D01*
X75260000Y-83650000D01*
X75960000Y-83650000D01*
X75967351Y-83650361D01*
G37*
D11*
X88815001Y-55950001D03*
X88815001Y-57220001D03*
X88815001Y-58490001D03*
X88815001Y-59760001D03*
X88815001Y-61030001D03*
X88815001Y-62300001D03*
X88815001Y-63570001D03*
X88815001Y-64840001D03*
X88815001Y-66110001D03*
X88815001Y-67380001D03*
X88815001Y-68650001D03*
X88815001Y-69920001D03*
X88815001Y-71190001D03*
X88815001Y-72460001D03*
D12*
X86030001Y-73460001D03*
X84760001Y-73460001D03*
X83490001Y-73460001D03*
X82220001Y-73460001D03*
X80950001Y-73460001D03*
X79680001Y-73460001D03*
X78410001Y-73460001D03*
X77140001Y-73460001D03*
X75870001Y-73460001D03*
X74600001Y-73460001D03*
D11*
X71815001Y-72460001D03*
X71815001Y-71190001D03*
X71815001Y-69920001D03*
X71815001Y-68650001D03*
X71815001Y-67380001D03*
X71815001Y-66110001D03*
X71815001Y-64840001D03*
X71815001Y-63570001D03*
X71815001Y-62300001D03*
X71815001Y-61030001D03*
X71815001Y-59760001D03*
X71815001Y-58490001D03*
X71815001Y-57220001D03*
X71815001Y-55950001D03*
D13*
X79315001Y-63450001D03*
D14*
X89900000Y-80010000D03*
X87900000Y-80960000D03*
X87900000Y-79060000D03*
D10*
G36*
X89804505Y-87336204D02*
G01*
X89828773Y-87339804D01*
X89852572Y-87345765D01*
X89875671Y-87354030D01*
X89897850Y-87364520D01*
X89918893Y-87377132D01*
X89938599Y-87391747D01*
X89956777Y-87408223D01*
X89973253Y-87426401D01*
X89987868Y-87446107D01*
X90000480Y-87467150D01*
X90010970Y-87489329D01*
X90019235Y-87512428D01*
X90025196Y-87536227D01*
X90028796Y-87560495D01*
X90030000Y-87584999D01*
X90030000Y-88885001D01*
X90028796Y-88909505D01*
X90025196Y-88933773D01*
X90019235Y-88957572D01*
X90010970Y-88980671D01*
X90000480Y-89002850D01*
X89987868Y-89023893D01*
X89973253Y-89043599D01*
X89956777Y-89061777D01*
X89938599Y-89078253D01*
X89918893Y-89092868D01*
X89897850Y-89105480D01*
X89875671Y-89115970D01*
X89852572Y-89124235D01*
X89828773Y-89130196D01*
X89804505Y-89133796D01*
X89780001Y-89135000D01*
X89079999Y-89135000D01*
X89055495Y-89133796D01*
X89031227Y-89130196D01*
X89007428Y-89124235D01*
X88984329Y-89115970D01*
X88962150Y-89105480D01*
X88941107Y-89092868D01*
X88921401Y-89078253D01*
X88903223Y-89061777D01*
X88886747Y-89043599D01*
X88872132Y-89023893D01*
X88859520Y-89002850D01*
X88849030Y-88980671D01*
X88840765Y-88957572D01*
X88834804Y-88933773D01*
X88831204Y-88909505D01*
X88830000Y-88885001D01*
X88830000Y-87584999D01*
X88831204Y-87560495D01*
X88834804Y-87536227D01*
X88840765Y-87512428D01*
X88849030Y-87489329D01*
X88859520Y-87467150D01*
X88872132Y-87446107D01*
X88886747Y-87426401D01*
X88903223Y-87408223D01*
X88921401Y-87391747D01*
X88941107Y-87377132D01*
X88962150Y-87364520D01*
X88984329Y-87354030D01*
X89007428Y-87345765D01*
X89031227Y-87339804D01*
X89055495Y-87336204D01*
X89079999Y-87335000D01*
X89780001Y-87335000D01*
X89804505Y-87336204D01*
G37*
G36*
X86204505Y-87336204D02*
G01*
X86228773Y-87339804D01*
X86252572Y-87345765D01*
X86275671Y-87354030D01*
X86297850Y-87364520D01*
X86318893Y-87377132D01*
X86338599Y-87391747D01*
X86356777Y-87408223D01*
X86373253Y-87426401D01*
X86387868Y-87446107D01*
X86400480Y-87467150D01*
X86410970Y-87489329D01*
X86419235Y-87512428D01*
X86425196Y-87536227D01*
X86428796Y-87560495D01*
X86430000Y-87584999D01*
X86430000Y-88885001D01*
X86428796Y-88909505D01*
X86425196Y-88933773D01*
X86419235Y-88957572D01*
X86410970Y-88980671D01*
X86400480Y-89002850D01*
X86387868Y-89023893D01*
X86373253Y-89043599D01*
X86356777Y-89061777D01*
X86338599Y-89078253D01*
X86318893Y-89092868D01*
X86297850Y-89105480D01*
X86275671Y-89115970D01*
X86252572Y-89124235D01*
X86228773Y-89130196D01*
X86204505Y-89133796D01*
X86180001Y-89135000D01*
X85479999Y-89135000D01*
X85455495Y-89133796D01*
X85431227Y-89130196D01*
X85407428Y-89124235D01*
X85384329Y-89115970D01*
X85362150Y-89105480D01*
X85341107Y-89092868D01*
X85321401Y-89078253D01*
X85303223Y-89061777D01*
X85286747Y-89043599D01*
X85272132Y-89023893D01*
X85259520Y-89002850D01*
X85249030Y-88980671D01*
X85240765Y-88957572D01*
X85234804Y-88933773D01*
X85231204Y-88909505D01*
X85230000Y-88885001D01*
X85230000Y-87584999D01*
X85231204Y-87560495D01*
X85234804Y-87536227D01*
X85240765Y-87512428D01*
X85249030Y-87489329D01*
X85259520Y-87467150D01*
X85272132Y-87446107D01*
X85286747Y-87426401D01*
X85303223Y-87408223D01*
X85321401Y-87391747D01*
X85341107Y-87377132D01*
X85362150Y-87364520D01*
X85384329Y-87354030D01*
X85407428Y-87345765D01*
X85431227Y-87339804D01*
X85455495Y-87336204D01*
X85479999Y-87335000D01*
X86180001Y-87335000D01*
X86204505Y-87336204D01*
G37*
G36*
X88294703Y-83585722D02*
G01*
X88309264Y-83587882D01*
X88323543Y-83591459D01*
X88337403Y-83596418D01*
X88350710Y-83602712D01*
X88363336Y-83610280D01*
X88375159Y-83619048D01*
X88386066Y-83628934D01*
X88395952Y-83639841D01*
X88404720Y-83651664D01*
X88412288Y-83664290D01*
X88418582Y-83677597D01*
X88423541Y-83691457D01*
X88427118Y-83705736D01*
X88429278Y-83720297D01*
X88430000Y-83735000D01*
X88430000Y-84985000D01*
X88429278Y-84999703D01*
X88427118Y-85014264D01*
X88423541Y-85028543D01*
X88418582Y-85042403D01*
X88412288Y-85055710D01*
X88404720Y-85068336D01*
X88395952Y-85080159D01*
X88386066Y-85091066D01*
X88375159Y-85100952D01*
X88363336Y-85109720D01*
X88350710Y-85117288D01*
X88337403Y-85123582D01*
X88323543Y-85128541D01*
X88309264Y-85132118D01*
X88294703Y-85134278D01*
X88280000Y-85135000D01*
X87980000Y-85135000D01*
X87965297Y-85134278D01*
X87950736Y-85132118D01*
X87936457Y-85128541D01*
X87922597Y-85123582D01*
X87909290Y-85117288D01*
X87896664Y-85109720D01*
X87884841Y-85100952D01*
X87873934Y-85091066D01*
X87864048Y-85080159D01*
X87855280Y-85068336D01*
X87847712Y-85055710D01*
X87841418Y-85042403D01*
X87836459Y-85028543D01*
X87832882Y-85014264D01*
X87830722Y-84999703D01*
X87830000Y-84985000D01*
X87830000Y-83735000D01*
X87830722Y-83720297D01*
X87832882Y-83705736D01*
X87836459Y-83691457D01*
X87841418Y-83677597D01*
X87847712Y-83664290D01*
X87855280Y-83651664D01*
X87864048Y-83639841D01*
X87873934Y-83628934D01*
X87884841Y-83619048D01*
X87896664Y-83610280D01*
X87909290Y-83602712D01*
X87922597Y-83596418D01*
X87936457Y-83591459D01*
X87950736Y-83587882D01*
X87965297Y-83585722D01*
X87980000Y-83585000D01*
X88280000Y-83585000D01*
X88294703Y-83585722D01*
G37*
G36*
X87294703Y-83585722D02*
G01*
X87309264Y-83587882D01*
X87323543Y-83591459D01*
X87337403Y-83596418D01*
X87350710Y-83602712D01*
X87363336Y-83610280D01*
X87375159Y-83619048D01*
X87386066Y-83628934D01*
X87395952Y-83639841D01*
X87404720Y-83651664D01*
X87412288Y-83664290D01*
X87418582Y-83677597D01*
X87423541Y-83691457D01*
X87427118Y-83705736D01*
X87429278Y-83720297D01*
X87430000Y-83735000D01*
X87430000Y-84985000D01*
X87429278Y-84999703D01*
X87427118Y-85014264D01*
X87423541Y-85028543D01*
X87418582Y-85042403D01*
X87412288Y-85055710D01*
X87404720Y-85068336D01*
X87395952Y-85080159D01*
X87386066Y-85091066D01*
X87375159Y-85100952D01*
X87363336Y-85109720D01*
X87350710Y-85117288D01*
X87337403Y-85123582D01*
X87323543Y-85128541D01*
X87309264Y-85132118D01*
X87294703Y-85134278D01*
X87280000Y-85135000D01*
X86980000Y-85135000D01*
X86965297Y-85134278D01*
X86950736Y-85132118D01*
X86936457Y-85128541D01*
X86922597Y-85123582D01*
X86909290Y-85117288D01*
X86896664Y-85109720D01*
X86884841Y-85100952D01*
X86873934Y-85091066D01*
X86864048Y-85080159D01*
X86855280Y-85068336D01*
X86847712Y-85055710D01*
X86841418Y-85042403D01*
X86836459Y-85028543D01*
X86832882Y-85014264D01*
X86830722Y-84999703D01*
X86830000Y-84985000D01*
X86830000Y-83735000D01*
X86830722Y-83720297D01*
X86832882Y-83705736D01*
X86836459Y-83691457D01*
X86841418Y-83677597D01*
X86847712Y-83664290D01*
X86855280Y-83651664D01*
X86864048Y-83639841D01*
X86873934Y-83628934D01*
X86884841Y-83619048D01*
X86896664Y-83610280D01*
X86909290Y-83602712D01*
X86922597Y-83596418D01*
X86936457Y-83591459D01*
X86950736Y-83587882D01*
X86965297Y-83585722D01*
X86980000Y-83585000D01*
X87280000Y-83585000D01*
X87294703Y-83585722D01*
G37*
M02*
