G04 #@! TF.GenerationSoftware,KiCad,Pcbnew,(5.1.5)-3*
G04 #@! TF.CreationDate,2020-06-05T14:27:12-04:00*
G04 #@! TF.ProjectId,OSSC,4f535343-2e6b-4696-9361-645f70636258,rev?*
G04 #@! TF.SameCoordinates,Original*
G04 #@! TF.FileFunction,Soldermask,Bot*
G04 #@! TF.FilePolarity,Negative*
%FSLAX46Y46*%
G04 Gerber Fmt 4.6, Leading zero omitted, Abs format (unit mm)*
G04 Created by KiCad (PCBNEW (5.1.5)-3) date 2020-06-05 14:27:12*
%MOMM*%
%LPD*%
G04 APERTURE LIST*
%ADD10C,0.100000*%
G04 APERTURE END LIST*
D10*
G36*
X85504721Y-75924174D02*
G01*
X85604995Y-75965709D01*
X85604996Y-75965710D01*
X85695242Y-76026010D01*
X85771990Y-76102758D01*
X85771991Y-76102760D01*
X85832291Y-76193005D01*
X85873826Y-76293279D01*
X85895000Y-76399730D01*
X85895000Y-76508270D01*
X85873826Y-76614721D01*
X85832291Y-76714995D01*
X85832290Y-76714996D01*
X85771990Y-76805242D01*
X85695242Y-76881990D01*
X85649812Y-76912345D01*
X85604995Y-76942291D01*
X85529611Y-76973516D01*
X85508000Y-76985067D01*
X85489059Y-77000612D01*
X85473513Y-77019554D01*
X85461962Y-77041165D01*
X85454849Y-77064614D01*
X85452447Y-77089000D01*
X85454849Y-77113386D01*
X85461962Y-77136835D01*
X85473513Y-77158446D01*
X85489058Y-77177387D01*
X85508000Y-77192933D01*
X85529611Y-77204484D01*
X85604995Y-77235709D01*
X85604996Y-77235710D01*
X85695242Y-77296010D01*
X85771990Y-77372758D01*
X85771991Y-77372760D01*
X85832291Y-77463005D01*
X85873826Y-77563279D01*
X85895000Y-77669730D01*
X85895000Y-77778270D01*
X85873826Y-77884721D01*
X85832291Y-77984995D01*
X85832290Y-77984996D01*
X85771990Y-78075242D01*
X85695242Y-78151990D01*
X85649812Y-78182345D01*
X85604995Y-78212291D01*
X85529611Y-78243516D01*
X85508000Y-78255067D01*
X85489059Y-78270612D01*
X85473513Y-78289554D01*
X85461962Y-78311165D01*
X85454849Y-78334614D01*
X85452447Y-78359000D01*
X85454849Y-78383386D01*
X85461962Y-78406835D01*
X85473513Y-78428446D01*
X85489058Y-78447387D01*
X85508000Y-78462933D01*
X85529611Y-78474484D01*
X85604995Y-78505709D01*
X85604996Y-78505710D01*
X85695242Y-78566010D01*
X85771990Y-78642758D01*
X85771991Y-78642760D01*
X85832291Y-78733005D01*
X85873826Y-78833279D01*
X85895000Y-78939730D01*
X85895000Y-79048270D01*
X85873826Y-79154721D01*
X85832291Y-79254995D01*
X85832290Y-79254996D01*
X85771990Y-79345242D01*
X85695242Y-79421990D01*
X85663816Y-79442988D01*
X85602336Y-79484068D01*
X85583394Y-79499614D01*
X85567849Y-79518556D01*
X85556298Y-79540167D01*
X85549185Y-79563615D01*
X85546783Y-79588002D01*
X85549185Y-79612388D01*
X85556298Y-79635837D01*
X85567849Y-79657447D01*
X85583395Y-79676389D01*
X85602337Y-79691934D01*
X85623948Y-79703485D01*
X85647396Y-79710598D01*
X85671782Y-79713000D01*
X85895000Y-79713000D01*
X85895000Y-80815000D01*
X84793000Y-80815000D01*
X84793000Y-79713000D01*
X85016218Y-79713000D01*
X85040604Y-79710598D01*
X85064053Y-79703485D01*
X85085664Y-79691934D01*
X85104606Y-79676389D01*
X85120151Y-79657447D01*
X85131702Y-79635836D01*
X85138815Y-79612387D01*
X85141217Y-79588001D01*
X85138815Y-79563615D01*
X85131702Y-79540166D01*
X85120151Y-79518555D01*
X85104606Y-79499613D01*
X85085664Y-79484068D01*
X85024184Y-79442988D01*
X84992758Y-79421990D01*
X84916010Y-79345242D01*
X84855710Y-79254996D01*
X84855709Y-79254995D01*
X84814174Y-79154721D01*
X84793000Y-79048270D01*
X84793000Y-78939730D01*
X84814174Y-78833279D01*
X84855709Y-78733005D01*
X84916009Y-78642760D01*
X84916010Y-78642758D01*
X84992758Y-78566010D01*
X85083004Y-78505710D01*
X85083005Y-78505709D01*
X85158389Y-78474484D01*
X85180000Y-78462933D01*
X85198941Y-78447388D01*
X85214487Y-78428446D01*
X85226038Y-78406835D01*
X85233151Y-78383386D01*
X85235553Y-78359000D01*
X85233151Y-78334614D01*
X85226038Y-78311165D01*
X85214487Y-78289554D01*
X85198942Y-78270613D01*
X85180000Y-78255067D01*
X85158389Y-78243516D01*
X85083005Y-78212291D01*
X85038188Y-78182345D01*
X84992758Y-78151990D01*
X84916010Y-78075242D01*
X84855710Y-77984996D01*
X84855709Y-77984995D01*
X84814174Y-77884721D01*
X84793000Y-77778270D01*
X84793000Y-77669730D01*
X84814174Y-77563279D01*
X84855709Y-77463005D01*
X84916009Y-77372760D01*
X84916010Y-77372758D01*
X84992758Y-77296010D01*
X85083004Y-77235710D01*
X85083005Y-77235709D01*
X85158389Y-77204484D01*
X85180000Y-77192933D01*
X85198941Y-77177388D01*
X85214487Y-77158446D01*
X85226038Y-77136835D01*
X85233151Y-77113386D01*
X85235553Y-77089000D01*
X85233151Y-77064614D01*
X85226038Y-77041165D01*
X85214487Y-77019554D01*
X85198942Y-77000613D01*
X85180000Y-76985067D01*
X85158389Y-76973516D01*
X85083005Y-76942291D01*
X85038188Y-76912345D01*
X84992758Y-76881990D01*
X84916010Y-76805242D01*
X84855710Y-76714996D01*
X84855709Y-76714995D01*
X84814174Y-76614721D01*
X84793000Y-76508270D01*
X84793000Y-76399730D01*
X84814174Y-76293279D01*
X84855709Y-76193005D01*
X84916009Y-76102760D01*
X84916010Y-76102758D01*
X84992758Y-76026010D01*
X85083004Y-75965710D01*
X85083005Y-75965709D01*
X85183279Y-75924174D01*
X85289730Y-75903000D01*
X85398270Y-75903000D01*
X85504721Y-75924174D01*
G37*
G36*
X91916000Y-61944000D02*
G01*
X90964000Y-61944000D01*
X90964000Y-60992000D01*
X91916000Y-60992000D01*
X91916000Y-61944000D01*
G37*
G36*
X91916000Y-59912000D02*
G01*
X90964000Y-59912000D01*
X90964000Y-58960000D01*
X91916000Y-58960000D01*
X91916000Y-59912000D01*
G37*
M02*
