G04 #@! TF.GenerationSoftware,KiCad,Pcbnew,(5.1.5)-3*
G04 #@! TF.CreationDate,2020-06-05T14:27:12-04:00*
G04 #@! TF.ProjectId,OSSC,4f535343-2e6b-4696-9361-645f70636258,rev?*
G04 #@! TF.SameCoordinates,Original*
G04 #@! TF.FileFunction,Soldermask,Top*
G04 #@! TF.FilePolarity,Negative*
%FSLAX46Y46*%
G04 Gerber Fmt 4.6, Leading zero omitted, Abs format (unit mm)*
G04 Created by KiCad (PCBNEW (5.1.5)-3) date 2020-06-05 14:27:12*
%MOMM*%
%LPD*%
G04 APERTURE LIST*
%ADD10C,0.100000*%
G04 APERTURE END LIST*
D10*
G36*
X89921242Y-87288404D02*
G01*
X89958337Y-87299657D01*
X89992515Y-87317925D01*
X90022481Y-87342519D01*
X90047075Y-87372485D01*
X90065343Y-87406663D01*
X90076596Y-87443758D01*
X90081000Y-87488474D01*
X90081000Y-88981526D01*
X90076596Y-89026242D01*
X90065343Y-89063337D01*
X90047075Y-89097515D01*
X90022481Y-89127481D01*
X89992515Y-89152075D01*
X89958337Y-89170343D01*
X89921242Y-89181596D01*
X89876526Y-89186000D01*
X88983474Y-89186000D01*
X88938758Y-89181596D01*
X88901663Y-89170343D01*
X88867485Y-89152075D01*
X88837519Y-89127481D01*
X88812925Y-89097515D01*
X88794657Y-89063337D01*
X88783404Y-89026242D01*
X88779000Y-88981526D01*
X88779000Y-87488474D01*
X88783404Y-87443758D01*
X88794657Y-87406663D01*
X88812925Y-87372485D01*
X88837519Y-87342519D01*
X88867485Y-87317925D01*
X88901663Y-87299657D01*
X88938758Y-87288404D01*
X88983474Y-87284000D01*
X89876526Y-87284000D01*
X89921242Y-87288404D01*
G37*
G36*
X86321242Y-87288404D02*
G01*
X86358337Y-87299657D01*
X86392515Y-87317925D01*
X86422481Y-87342519D01*
X86447075Y-87372485D01*
X86465343Y-87406663D01*
X86476596Y-87443758D01*
X86481000Y-87488474D01*
X86481000Y-88981526D01*
X86476596Y-89026242D01*
X86465343Y-89063337D01*
X86447075Y-89097515D01*
X86422481Y-89127481D01*
X86392515Y-89152075D01*
X86358337Y-89170343D01*
X86321242Y-89181596D01*
X86276526Y-89186000D01*
X85383474Y-89186000D01*
X85338758Y-89181596D01*
X85301663Y-89170343D01*
X85267485Y-89152075D01*
X85237519Y-89127481D01*
X85212925Y-89097515D01*
X85194657Y-89063337D01*
X85183404Y-89026242D01*
X85179000Y-88981526D01*
X85179000Y-87488474D01*
X85183404Y-87443758D01*
X85194657Y-87406663D01*
X85212925Y-87372485D01*
X85237519Y-87342519D01*
X85267485Y-87317925D01*
X85301663Y-87299657D01*
X85338758Y-87288404D01*
X85383474Y-87284000D01*
X86276526Y-87284000D01*
X86321242Y-87288404D01*
G37*
G36*
X72623938Y-85483716D02*
G01*
X72644557Y-85489971D01*
X72663553Y-85500124D01*
X72680208Y-85513792D01*
X72693876Y-85530447D01*
X72704029Y-85549443D01*
X72710284Y-85570062D01*
X72713000Y-85597640D01*
X72713000Y-86106360D01*
X72710284Y-86133938D01*
X72704029Y-86154557D01*
X72693876Y-86173553D01*
X72680208Y-86190208D01*
X72663553Y-86203876D01*
X72644557Y-86214029D01*
X72623938Y-86220284D01*
X72596360Y-86223000D01*
X72137640Y-86223000D01*
X72110062Y-86220284D01*
X72089443Y-86214029D01*
X72070447Y-86203876D01*
X72053792Y-86190208D01*
X72040124Y-86173553D01*
X72029971Y-86154557D01*
X72023716Y-86133938D01*
X72021000Y-86106360D01*
X72021000Y-85597640D01*
X72023716Y-85570062D01*
X72029971Y-85549443D01*
X72040124Y-85530447D01*
X72053792Y-85513792D01*
X72070447Y-85500124D01*
X72089443Y-85489971D01*
X72110062Y-85483716D01*
X72137640Y-85481000D01*
X72596360Y-85481000D01*
X72623938Y-85483716D01*
G37*
G36*
X71653938Y-85483716D02*
G01*
X71674557Y-85489971D01*
X71693553Y-85500124D01*
X71710208Y-85513792D01*
X71723876Y-85530447D01*
X71734029Y-85549443D01*
X71740284Y-85570062D01*
X71743000Y-85597640D01*
X71743000Y-86106360D01*
X71740284Y-86133938D01*
X71734029Y-86154557D01*
X71723876Y-86173553D01*
X71710208Y-86190208D01*
X71693553Y-86203876D01*
X71674557Y-86214029D01*
X71653938Y-86220284D01*
X71626360Y-86223000D01*
X71167640Y-86223000D01*
X71140062Y-86220284D01*
X71119443Y-86214029D01*
X71100447Y-86203876D01*
X71083792Y-86190208D01*
X71070124Y-86173553D01*
X71059971Y-86154557D01*
X71053716Y-86133938D01*
X71051000Y-86106360D01*
X71051000Y-85597640D01*
X71053716Y-85570062D01*
X71059971Y-85549443D01*
X71070124Y-85530447D01*
X71083792Y-85513792D01*
X71100447Y-85500124D01*
X71119443Y-85489971D01*
X71140062Y-85483716D01*
X71167640Y-85481000D01*
X71626360Y-85481000D01*
X71653938Y-85483716D01*
G37*
G36*
X87389928Y-83536764D02*
G01*
X87411009Y-83543160D01*
X87430445Y-83553548D01*
X87447476Y-83567524D01*
X87461452Y-83584555D01*
X87471840Y-83603991D01*
X87478236Y-83625072D01*
X87481000Y-83653140D01*
X87481000Y-85066860D01*
X87478236Y-85094928D01*
X87471840Y-85116009D01*
X87461452Y-85135445D01*
X87447476Y-85152476D01*
X87430445Y-85166452D01*
X87411009Y-85176840D01*
X87389928Y-85183236D01*
X87361860Y-85186000D01*
X86898140Y-85186000D01*
X86870072Y-85183236D01*
X86848991Y-85176840D01*
X86829555Y-85166452D01*
X86812524Y-85152476D01*
X86798548Y-85135445D01*
X86788160Y-85116009D01*
X86781764Y-85094928D01*
X86779000Y-85066860D01*
X86779000Y-83653140D01*
X86781764Y-83625072D01*
X86788160Y-83603991D01*
X86798548Y-83584555D01*
X86812524Y-83567524D01*
X86829555Y-83553548D01*
X86848991Y-83543160D01*
X86870072Y-83536764D01*
X86898140Y-83534000D01*
X87361860Y-83534000D01*
X87389928Y-83536764D01*
G37*
G36*
X88389928Y-83536764D02*
G01*
X88411009Y-83543160D01*
X88430445Y-83553548D01*
X88447476Y-83567524D01*
X88461452Y-83584555D01*
X88471840Y-83603991D01*
X88478236Y-83625072D01*
X88481000Y-83653140D01*
X88481000Y-85066860D01*
X88478236Y-85094928D01*
X88471840Y-85116009D01*
X88461452Y-85135445D01*
X88447476Y-85152476D01*
X88430445Y-85166452D01*
X88411009Y-85176840D01*
X88389928Y-85183236D01*
X88361860Y-85186000D01*
X87898140Y-85186000D01*
X87870072Y-85183236D01*
X87848991Y-85176840D01*
X87829555Y-85166452D01*
X87812524Y-85152476D01*
X87798548Y-85135445D01*
X87788160Y-85116009D01*
X87781764Y-85094928D01*
X87779000Y-85066860D01*
X87779000Y-83653140D01*
X87781764Y-83625072D01*
X87788160Y-83603991D01*
X87798548Y-83584555D01*
X87812524Y-83567524D01*
X87829555Y-83553548D01*
X87848991Y-83543160D01*
X87870072Y-83536764D01*
X87898140Y-83534000D01*
X88361860Y-83534000D01*
X88389928Y-83536764D01*
G37*
G36*
X72580295Y-80125323D02*
G01*
X72587309Y-80127451D01*
X72601077Y-80134810D01*
X72623716Y-80144187D01*
X72647749Y-80148967D01*
X72672253Y-80148967D01*
X72696286Y-80144186D01*
X72718923Y-80134810D01*
X72732691Y-80127451D01*
X72739705Y-80125323D01*
X72753140Y-80124000D01*
X73066860Y-80124000D01*
X73080295Y-80125323D01*
X73087309Y-80127451D01*
X73101077Y-80134810D01*
X73123716Y-80144187D01*
X73147749Y-80148967D01*
X73172253Y-80148967D01*
X73196286Y-80144186D01*
X73218923Y-80134810D01*
X73232691Y-80127451D01*
X73239705Y-80125323D01*
X73253140Y-80124000D01*
X73566860Y-80124000D01*
X73580295Y-80125323D01*
X73587309Y-80127451D01*
X73601077Y-80134810D01*
X73623716Y-80144187D01*
X73647749Y-80148967D01*
X73672253Y-80148967D01*
X73696286Y-80144186D01*
X73718923Y-80134810D01*
X73732691Y-80127451D01*
X73739705Y-80125323D01*
X73753140Y-80124000D01*
X74066860Y-80124000D01*
X74080295Y-80125323D01*
X74087309Y-80127451D01*
X74101077Y-80134810D01*
X74123716Y-80144187D01*
X74147749Y-80148967D01*
X74172253Y-80148967D01*
X74196286Y-80144186D01*
X74218923Y-80134810D01*
X74232691Y-80127451D01*
X74239705Y-80125323D01*
X74253140Y-80124000D01*
X74566860Y-80124000D01*
X74580295Y-80125323D01*
X74587309Y-80127451D01*
X74601077Y-80134810D01*
X74623716Y-80144187D01*
X74647749Y-80148967D01*
X74672253Y-80148967D01*
X74696286Y-80144186D01*
X74718923Y-80134810D01*
X74732691Y-80127451D01*
X74739705Y-80125323D01*
X74753140Y-80124000D01*
X75066860Y-80124000D01*
X75080295Y-80125323D01*
X75087310Y-80127451D01*
X75093776Y-80130908D01*
X75099442Y-80135558D01*
X75104092Y-80141224D01*
X75107549Y-80147690D01*
X75109677Y-80154705D01*
X75111000Y-80168140D01*
X75111000Y-80974001D01*
X75113402Y-80998387D01*
X75120515Y-81021836D01*
X75132066Y-81043447D01*
X75147611Y-81062389D01*
X75166553Y-81077934D01*
X75188164Y-81089485D01*
X75211613Y-81096598D01*
X75235999Y-81099000D01*
X76041860Y-81099000D01*
X76055295Y-81100323D01*
X76062310Y-81102451D01*
X76068776Y-81105908D01*
X76074442Y-81110558D01*
X76079092Y-81116224D01*
X76082549Y-81122690D01*
X76084677Y-81129705D01*
X76086000Y-81143140D01*
X76086000Y-81456860D01*
X76084677Y-81470295D01*
X76082549Y-81477309D01*
X76075190Y-81491077D01*
X76065813Y-81513716D01*
X76061033Y-81537749D01*
X76061033Y-81562253D01*
X76065814Y-81586286D01*
X76075190Y-81608923D01*
X76082549Y-81622691D01*
X76084677Y-81629705D01*
X76086000Y-81643140D01*
X76086000Y-81956860D01*
X76084677Y-81970295D01*
X76082549Y-81977309D01*
X76075190Y-81991077D01*
X76065813Y-82013716D01*
X76061033Y-82037749D01*
X76061033Y-82062253D01*
X76065814Y-82086286D01*
X76075190Y-82108923D01*
X76082549Y-82122691D01*
X76084677Y-82129705D01*
X76086000Y-82143140D01*
X76086000Y-82456860D01*
X76084677Y-82470295D01*
X76082549Y-82477309D01*
X76075190Y-82491077D01*
X76065813Y-82513716D01*
X76061033Y-82537749D01*
X76061033Y-82562253D01*
X76065814Y-82586286D01*
X76075190Y-82608923D01*
X76082549Y-82622691D01*
X76084677Y-82629705D01*
X76086000Y-82643140D01*
X76086000Y-82956860D01*
X76084677Y-82970295D01*
X76082549Y-82977309D01*
X76075190Y-82991077D01*
X76065813Y-83013716D01*
X76061033Y-83037749D01*
X76061033Y-83062253D01*
X76065814Y-83086286D01*
X76075190Y-83108923D01*
X76082549Y-83122691D01*
X76084677Y-83129705D01*
X76086000Y-83143140D01*
X76086000Y-83456860D01*
X76084677Y-83470295D01*
X76082549Y-83477309D01*
X76075190Y-83491077D01*
X76065813Y-83513716D01*
X76061033Y-83537749D01*
X76061033Y-83562253D01*
X76065814Y-83586286D01*
X76075190Y-83608923D01*
X76082549Y-83622691D01*
X76084677Y-83629705D01*
X76086000Y-83643140D01*
X76086000Y-83956860D01*
X76084677Y-83970295D01*
X76082549Y-83977310D01*
X76079092Y-83983776D01*
X76074442Y-83989442D01*
X76068776Y-83994092D01*
X76062310Y-83997549D01*
X76055295Y-83999677D01*
X76041860Y-84001000D01*
X75235999Y-84001000D01*
X75211613Y-84003402D01*
X75188164Y-84010515D01*
X75166553Y-84022066D01*
X75147611Y-84037611D01*
X75132066Y-84056553D01*
X75120515Y-84078164D01*
X75113402Y-84101613D01*
X75111000Y-84125999D01*
X75111000Y-84931860D01*
X75109677Y-84945295D01*
X75107549Y-84952310D01*
X75104092Y-84958776D01*
X75099442Y-84964442D01*
X75093776Y-84969092D01*
X75087310Y-84972549D01*
X75080295Y-84974677D01*
X75066860Y-84976000D01*
X74753140Y-84976000D01*
X74739705Y-84974677D01*
X74732691Y-84972549D01*
X74718923Y-84965190D01*
X74696284Y-84955813D01*
X74672251Y-84951033D01*
X74647747Y-84951033D01*
X74623714Y-84955814D01*
X74601077Y-84965190D01*
X74587309Y-84972549D01*
X74580295Y-84974677D01*
X74566860Y-84976000D01*
X74253140Y-84976000D01*
X74239705Y-84974677D01*
X74232691Y-84972549D01*
X74218923Y-84965190D01*
X74196284Y-84955813D01*
X74172251Y-84951033D01*
X74147747Y-84951033D01*
X74123714Y-84955814D01*
X74101077Y-84965190D01*
X74087309Y-84972549D01*
X74080295Y-84974677D01*
X74066860Y-84976000D01*
X73753140Y-84976000D01*
X73739705Y-84974677D01*
X73732691Y-84972549D01*
X73718923Y-84965190D01*
X73696284Y-84955813D01*
X73672251Y-84951033D01*
X73647747Y-84951033D01*
X73623714Y-84955814D01*
X73601077Y-84965190D01*
X73587309Y-84972549D01*
X73580295Y-84974677D01*
X73566860Y-84976000D01*
X73253140Y-84976000D01*
X73239705Y-84974677D01*
X73232691Y-84972549D01*
X73218923Y-84965190D01*
X73196284Y-84955813D01*
X73172251Y-84951033D01*
X73147747Y-84951033D01*
X73123714Y-84955814D01*
X73101077Y-84965190D01*
X73087309Y-84972549D01*
X73080295Y-84974677D01*
X73066860Y-84976000D01*
X72753140Y-84976000D01*
X72739705Y-84974677D01*
X72732691Y-84972549D01*
X72718923Y-84965190D01*
X72696284Y-84955813D01*
X72672251Y-84951033D01*
X72647747Y-84951033D01*
X72623714Y-84955814D01*
X72601077Y-84965190D01*
X72587309Y-84972549D01*
X72580295Y-84974677D01*
X72566860Y-84976000D01*
X72253140Y-84976000D01*
X72239705Y-84974677D01*
X72232690Y-84972549D01*
X72226224Y-84969092D01*
X72220558Y-84964442D01*
X72215908Y-84958776D01*
X72212451Y-84952310D01*
X72210323Y-84945295D01*
X72209000Y-84931860D01*
X72209000Y-84125999D01*
X72206598Y-84101613D01*
X72199485Y-84078164D01*
X72187934Y-84056553D01*
X72172389Y-84037611D01*
X72153447Y-84022066D01*
X72131836Y-84010515D01*
X72108387Y-84003402D01*
X72084001Y-84001000D01*
X71278140Y-84001000D01*
X71264705Y-83999677D01*
X71257690Y-83997549D01*
X71251224Y-83994092D01*
X71245558Y-83989442D01*
X71240908Y-83983776D01*
X71237451Y-83977310D01*
X71235323Y-83970295D01*
X71234000Y-83956860D01*
X71234000Y-83643140D01*
X71235323Y-83629705D01*
X71237451Y-83622691D01*
X71244810Y-83608923D01*
X71254187Y-83586284D01*
X71258967Y-83562251D01*
X71258967Y-83537747D01*
X71254186Y-83513714D01*
X71244810Y-83491077D01*
X71237451Y-83477309D01*
X71235323Y-83470295D01*
X71234000Y-83456860D01*
X71234000Y-83143140D01*
X71235323Y-83129705D01*
X71237451Y-83122691D01*
X71244810Y-83108923D01*
X71254187Y-83086284D01*
X71258967Y-83062251D01*
X71258967Y-83037747D01*
X71254186Y-83013714D01*
X71244810Y-82991077D01*
X71237451Y-82977309D01*
X71235323Y-82970295D01*
X71234000Y-82956860D01*
X71234000Y-82643140D01*
X71235323Y-82629705D01*
X71237451Y-82622691D01*
X71244810Y-82608923D01*
X71254187Y-82586284D01*
X71258967Y-82562251D01*
X71258967Y-82537747D01*
X71254186Y-82513714D01*
X71244810Y-82491077D01*
X71237451Y-82477309D01*
X71235323Y-82470295D01*
X71234000Y-82456860D01*
X71234000Y-82143140D01*
X71235323Y-82129705D01*
X71237451Y-82122691D01*
X71244810Y-82108923D01*
X71254187Y-82086284D01*
X71258967Y-82062251D01*
X71258967Y-82037747D01*
X71254186Y-82013714D01*
X71244810Y-81991077D01*
X71237451Y-81977309D01*
X71235323Y-81970295D01*
X71234000Y-81956860D01*
X71234000Y-81643140D01*
X71235323Y-81629705D01*
X71237451Y-81622691D01*
X71244810Y-81608923D01*
X71254187Y-81586284D01*
X71258967Y-81562251D01*
X71258967Y-81537749D01*
X72161033Y-81537749D01*
X72161033Y-81562253D01*
X72165814Y-81586286D01*
X72175190Y-81608923D01*
X72182549Y-81622691D01*
X72184677Y-81629705D01*
X72186000Y-81643140D01*
X72186000Y-81956860D01*
X72184677Y-81970295D01*
X72182549Y-81977309D01*
X72175190Y-81991077D01*
X72165813Y-82013716D01*
X72161033Y-82037749D01*
X72161033Y-82062253D01*
X72165814Y-82086286D01*
X72175190Y-82108923D01*
X72182549Y-82122691D01*
X72184677Y-82129705D01*
X72186000Y-82143140D01*
X72186000Y-82456860D01*
X72184677Y-82470295D01*
X72182549Y-82477309D01*
X72175190Y-82491077D01*
X72165813Y-82513716D01*
X72161033Y-82537749D01*
X72161033Y-82562253D01*
X72165814Y-82586286D01*
X72175190Y-82608923D01*
X72182549Y-82622691D01*
X72184677Y-82629705D01*
X72186000Y-82643140D01*
X72186000Y-82956860D01*
X72184677Y-82970295D01*
X72182549Y-82977309D01*
X72175190Y-82991077D01*
X72165813Y-83013716D01*
X72161033Y-83037749D01*
X72161033Y-83062253D01*
X72165814Y-83086286D01*
X72175190Y-83108923D01*
X72182549Y-83122691D01*
X72184677Y-83129705D01*
X72186000Y-83143140D01*
X72186000Y-83456860D01*
X72184677Y-83470295D01*
X72182549Y-83477309D01*
X72175190Y-83491077D01*
X72165813Y-83513716D01*
X72161033Y-83537749D01*
X72161033Y-83562253D01*
X72165814Y-83586286D01*
X72175190Y-83608923D01*
X72182549Y-83622691D01*
X72184677Y-83629705D01*
X72186000Y-83643140D01*
X72186000Y-83899001D01*
X72188402Y-83923387D01*
X72195515Y-83946836D01*
X72207066Y-83968447D01*
X72222611Y-83987389D01*
X72241553Y-84002934D01*
X72263164Y-84014485D01*
X72286613Y-84021598D01*
X72310999Y-84024000D01*
X72566860Y-84024000D01*
X72580295Y-84025323D01*
X72587309Y-84027451D01*
X72601077Y-84034810D01*
X72623716Y-84044187D01*
X72647749Y-84048967D01*
X72672253Y-84048967D01*
X72696286Y-84044186D01*
X72718923Y-84034810D01*
X72732691Y-84027451D01*
X72739705Y-84025323D01*
X72753140Y-84024000D01*
X73066860Y-84024000D01*
X73080295Y-84025323D01*
X73087309Y-84027451D01*
X73101077Y-84034810D01*
X73123716Y-84044187D01*
X73147749Y-84048967D01*
X73172253Y-84048967D01*
X73196286Y-84044186D01*
X73218923Y-84034810D01*
X73232691Y-84027451D01*
X73239705Y-84025323D01*
X73253140Y-84024000D01*
X73566860Y-84024000D01*
X73580295Y-84025323D01*
X73587309Y-84027451D01*
X73601077Y-84034810D01*
X73623716Y-84044187D01*
X73647749Y-84048967D01*
X73672253Y-84048967D01*
X73696286Y-84044186D01*
X73718923Y-84034810D01*
X73732691Y-84027451D01*
X73739705Y-84025323D01*
X73753140Y-84024000D01*
X74066860Y-84024000D01*
X74080295Y-84025323D01*
X74087309Y-84027451D01*
X74101077Y-84034810D01*
X74123716Y-84044187D01*
X74147749Y-84048967D01*
X74172253Y-84048967D01*
X74196286Y-84044186D01*
X74218923Y-84034810D01*
X74232691Y-84027451D01*
X74239705Y-84025323D01*
X74253140Y-84024000D01*
X74566860Y-84024000D01*
X74580295Y-84025323D01*
X74587309Y-84027451D01*
X74601077Y-84034810D01*
X74623716Y-84044187D01*
X74647749Y-84048967D01*
X74672253Y-84048967D01*
X74696286Y-84044186D01*
X74718923Y-84034810D01*
X74732691Y-84027451D01*
X74739705Y-84025323D01*
X74753140Y-84024000D01*
X75009001Y-84024000D01*
X75033387Y-84021598D01*
X75056836Y-84014485D01*
X75078447Y-84002934D01*
X75097389Y-83987389D01*
X75112934Y-83968447D01*
X75124485Y-83946836D01*
X75131598Y-83923387D01*
X75134000Y-83899001D01*
X75134000Y-83643140D01*
X75135323Y-83629705D01*
X75137451Y-83622691D01*
X75144810Y-83608923D01*
X75154187Y-83586284D01*
X75158967Y-83562251D01*
X75158967Y-83537747D01*
X75154186Y-83513714D01*
X75144810Y-83491077D01*
X75137451Y-83477309D01*
X75135323Y-83470295D01*
X75134000Y-83456860D01*
X75134000Y-83143140D01*
X75135323Y-83129705D01*
X75137451Y-83122691D01*
X75144810Y-83108923D01*
X75154187Y-83086284D01*
X75158967Y-83062251D01*
X75158967Y-83037747D01*
X75154186Y-83013714D01*
X75144810Y-82991077D01*
X75137451Y-82977309D01*
X75135323Y-82970295D01*
X75134000Y-82956860D01*
X75134000Y-82643140D01*
X75135323Y-82629705D01*
X75137451Y-82622691D01*
X75144810Y-82608923D01*
X75154187Y-82586284D01*
X75158967Y-82562251D01*
X75158967Y-82537747D01*
X75154186Y-82513714D01*
X75144810Y-82491077D01*
X75137451Y-82477309D01*
X75135323Y-82470295D01*
X75134000Y-82456860D01*
X75134000Y-82143140D01*
X75135323Y-82129705D01*
X75137451Y-82122691D01*
X75144810Y-82108923D01*
X75154187Y-82086284D01*
X75158967Y-82062251D01*
X75158967Y-82037747D01*
X75154186Y-82013714D01*
X75144810Y-81991077D01*
X75137451Y-81977309D01*
X75135323Y-81970295D01*
X75134000Y-81956860D01*
X75134000Y-81643140D01*
X75135323Y-81629705D01*
X75137451Y-81622691D01*
X75144810Y-81608923D01*
X75154187Y-81586284D01*
X75158967Y-81562251D01*
X75158967Y-81537747D01*
X75154186Y-81513714D01*
X75144810Y-81491077D01*
X75137451Y-81477309D01*
X75135323Y-81470295D01*
X75134000Y-81456860D01*
X75134000Y-81200999D01*
X75131598Y-81176613D01*
X75124485Y-81153164D01*
X75112934Y-81131553D01*
X75097389Y-81112611D01*
X75078447Y-81097066D01*
X75056836Y-81085515D01*
X75033387Y-81078402D01*
X75009001Y-81076000D01*
X74753140Y-81076000D01*
X74739705Y-81074677D01*
X74732691Y-81072549D01*
X74718923Y-81065190D01*
X74696284Y-81055813D01*
X74672251Y-81051033D01*
X74647747Y-81051033D01*
X74623714Y-81055814D01*
X74601077Y-81065190D01*
X74587309Y-81072549D01*
X74580295Y-81074677D01*
X74566860Y-81076000D01*
X74253140Y-81076000D01*
X74239705Y-81074677D01*
X74232691Y-81072549D01*
X74218923Y-81065190D01*
X74196284Y-81055813D01*
X74172251Y-81051033D01*
X74147747Y-81051033D01*
X74123714Y-81055814D01*
X74101077Y-81065190D01*
X74087309Y-81072549D01*
X74080295Y-81074677D01*
X74066860Y-81076000D01*
X73753140Y-81076000D01*
X73739705Y-81074677D01*
X73732691Y-81072549D01*
X73718923Y-81065190D01*
X73696284Y-81055813D01*
X73672251Y-81051033D01*
X73647747Y-81051033D01*
X73623714Y-81055814D01*
X73601077Y-81065190D01*
X73587309Y-81072549D01*
X73580295Y-81074677D01*
X73566860Y-81076000D01*
X73253140Y-81076000D01*
X73239705Y-81074677D01*
X73232691Y-81072549D01*
X73218923Y-81065190D01*
X73196284Y-81055813D01*
X73172251Y-81051033D01*
X73147747Y-81051033D01*
X73123714Y-81055814D01*
X73101077Y-81065190D01*
X73087309Y-81072549D01*
X73080295Y-81074677D01*
X73066860Y-81076000D01*
X72753140Y-81076000D01*
X72739705Y-81074677D01*
X72732691Y-81072549D01*
X72718923Y-81065190D01*
X72696284Y-81055813D01*
X72672251Y-81051033D01*
X72647747Y-81051033D01*
X72623714Y-81055814D01*
X72601077Y-81065190D01*
X72587309Y-81072549D01*
X72580295Y-81074677D01*
X72566860Y-81076000D01*
X72310999Y-81076000D01*
X72286613Y-81078402D01*
X72263164Y-81085515D01*
X72241553Y-81097066D01*
X72222611Y-81112611D01*
X72207066Y-81131553D01*
X72195515Y-81153164D01*
X72188402Y-81176613D01*
X72186000Y-81200999D01*
X72186000Y-81456860D01*
X72184677Y-81470295D01*
X72182549Y-81477309D01*
X72175190Y-81491077D01*
X72165813Y-81513716D01*
X72161033Y-81537749D01*
X71258967Y-81537749D01*
X71258967Y-81537747D01*
X71254186Y-81513714D01*
X71244810Y-81491077D01*
X71237451Y-81477309D01*
X71235323Y-81470295D01*
X71234000Y-81456860D01*
X71234000Y-81143140D01*
X71235323Y-81129705D01*
X71237451Y-81122690D01*
X71240908Y-81116224D01*
X71245558Y-81110558D01*
X71251224Y-81105908D01*
X71257690Y-81102451D01*
X71264705Y-81100323D01*
X71278140Y-81099000D01*
X72084001Y-81099000D01*
X72108387Y-81096598D01*
X72131836Y-81089485D01*
X72153447Y-81077934D01*
X72172389Y-81062389D01*
X72187934Y-81043447D01*
X72199485Y-81021836D01*
X72206598Y-80998387D01*
X72209000Y-80974001D01*
X72209000Y-80168140D01*
X72210323Y-80154705D01*
X72212451Y-80147690D01*
X72215908Y-80141224D01*
X72220558Y-80135558D01*
X72226224Y-80130908D01*
X72232690Y-80127451D01*
X72239705Y-80125323D01*
X72253140Y-80124000D01*
X72566860Y-80124000D01*
X72580295Y-80125323D01*
G37*
G36*
X83291938Y-81419716D02*
G01*
X83312557Y-81425971D01*
X83331553Y-81436124D01*
X83348208Y-81449792D01*
X83361876Y-81466447D01*
X83372029Y-81485443D01*
X83378284Y-81506062D01*
X83381000Y-81533640D01*
X83381000Y-82042360D01*
X83378284Y-82069938D01*
X83372029Y-82090557D01*
X83361876Y-82109553D01*
X83348208Y-82126208D01*
X83331553Y-82139876D01*
X83312557Y-82150029D01*
X83291938Y-82156284D01*
X83264360Y-82159000D01*
X82805640Y-82159000D01*
X82778062Y-82156284D01*
X82757443Y-82150029D01*
X82738447Y-82139876D01*
X82721792Y-82126208D01*
X82708124Y-82109553D01*
X82697971Y-82090557D01*
X82691716Y-82069938D01*
X82689000Y-82042360D01*
X82689000Y-81533640D01*
X82691716Y-81506062D01*
X82697971Y-81485443D01*
X82708124Y-81466447D01*
X82721792Y-81449792D01*
X82738447Y-81436124D01*
X82757443Y-81425971D01*
X82778062Y-81419716D01*
X82805640Y-81417000D01*
X83264360Y-81417000D01*
X83291938Y-81419716D01*
G37*
G36*
X82321938Y-81419716D02*
G01*
X82342557Y-81425971D01*
X82361553Y-81436124D01*
X82378208Y-81449792D01*
X82391876Y-81466447D01*
X82402029Y-81485443D01*
X82408284Y-81506062D01*
X82411000Y-81533640D01*
X82411000Y-82042360D01*
X82408284Y-82069938D01*
X82402029Y-82090557D01*
X82391876Y-82109553D01*
X82378208Y-82126208D01*
X82361553Y-82139876D01*
X82342557Y-82150029D01*
X82321938Y-82156284D01*
X82294360Y-82159000D01*
X81835640Y-82159000D01*
X81808062Y-82156284D01*
X81787443Y-82150029D01*
X81768447Y-82139876D01*
X81751792Y-82126208D01*
X81738124Y-82109553D01*
X81727971Y-82090557D01*
X81721716Y-82069938D01*
X81719000Y-82042360D01*
X81719000Y-81533640D01*
X81721716Y-81506062D01*
X81727971Y-81485443D01*
X81738124Y-81466447D01*
X81751792Y-81449792D01*
X81768447Y-81436124D01*
X81787443Y-81425971D01*
X81808062Y-81419716D01*
X81835640Y-81417000D01*
X82294360Y-81417000D01*
X82321938Y-81419716D01*
G37*
G36*
X88401000Y-81411000D02*
G01*
X87399000Y-81411000D01*
X87399000Y-80509000D01*
X88401000Y-80509000D01*
X88401000Y-81411000D01*
G37*
G36*
X85504721Y-75924174D02*
G01*
X85604995Y-75965709D01*
X85604996Y-75965710D01*
X85695242Y-76026010D01*
X85771990Y-76102758D01*
X85771991Y-76102760D01*
X85832291Y-76193005D01*
X85873826Y-76293279D01*
X85895000Y-76399730D01*
X85895000Y-76508270D01*
X85873826Y-76614721D01*
X85832291Y-76714995D01*
X85832290Y-76714996D01*
X85771990Y-76805242D01*
X85695242Y-76881990D01*
X85662301Y-76904000D01*
X85604995Y-76942291D01*
X85529611Y-76973516D01*
X85508000Y-76985067D01*
X85489059Y-77000612D01*
X85473513Y-77019554D01*
X85461962Y-77041165D01*
X85454849Y-77064614D01*
X85452447Y-77089000D01*
X85454849Y-77113386D01*
X85461962Y-77136835D01*
X85473513Y-77158446D01*
X85489058Y-77177387D01*
X85508000Y-77192933D01*
X85529611Y-77204484D01*
X85604995Y-77235709D01*
X85604996Y-77235710D01*
X85695242Y-77296010D01*
X85771990Y-77372758D01*
X85779606Y-77384156D01*
X85832291Y-77463005D01*
X85873826Y-77563279D01*
X85895000Y-77669730D01*
X85895000Y-77778270D01*
X85873826Y-77884721D01*
X85832291Y-77984995D01*
X85812771Y-78014208D01*
X85771990Y-78075242D01*
X85695242Y-78151990D01*
X85649812Y-78182345D01*
X85604995Y-78212291D01*
X85529611Y-78243516D01*
X85508000Y-78255067D01*
X85489059Y-78270612D01*
X85473513Y-78289554D01*
X85461962Y-78311165D01*
X85454849Y-78334614D01*
X85452447Y-78359000D01*
X85454849Y-78383386D01*
X85461962Y-78406835D01*
X85473513Y-78428446D01*
X85489058Y-78447387D01*
X85508000Y-78462933D01*
X85529611Y-78474484D01*
X85604995Y-78505709D01*
X85632540Y-78524114D01*
X85695242Y-78566010D01*
X85771990Y-78642758D01*
X85771991Y-78642760D01*
X85832291Y-78733005D01*
X85873826Y-78833279D01*
X85895000Y-78939730D01*
X85895000Y-79048270D01*
X85873826Y-79154721D01*
X85832291Y-79254995D01*
X85832290Y-79254996D01*
X85771990Y-79345242D01*
X85695242Y-79421990D01*
X85663816Y-79442988D01*
X85602336Y-79484068D01*
X85583394Y-79499614D01*
X85567849Y-79518556D01*
X85556298Y-79540167D01*
X85549185Y-79563615D01*
X85546783Y-79588002D01*
X85549185Y-79612388D01*
X85556298Y-79635837D01*
X85567849Y-79657447D01*
X85583395Y-79676389D01*
X85602337Y-79691934D01*
X85623948Y-79703485D01*
X85647396Y-79710598D01*
X85671782Y-79713000D01*
X85895000Y-79713000D01*
X85895000Y-80815000D01*
X84793000Y-80815000D01*
X84793000Y-79713000D01*
X85016218Y-79713000D01*
X85040604Y-79710598D01*
X85064053Y-79703485D01*
X85085664Y-79691934D01*
X85104606Y-79676389D01*
X85120151Y-79657447D01*
X85131702Y-79635836D01*
X85138815Y-79612387D01*
X85141217Y-79588001D01*
X85138815Y-79563615D01*
X85131702Y-79540166D01*
X85120151Y-79518555D01*
X85104606Y-79499613D01*
X85085664Y-79484068D01*
X85024184Y-79442988D01*
X84992758Y-79421990D01*
X84916010Y-79345242D01*
X84855710Y-79254996D01*
X84855709Y-79254995D01*
X84814174Y-79154721D01*
X84793000Y-79048270D01*
X84793000Y-78939730D01*
X84814174Y-78833279D01*
X84855709Y-78733005D01*
X84916009Y-78642760D01*
X84916010Y-78642758D01*
X84992758Y-78566010D01*
X85055460Y-78524114D01*
X85083005Y-78505709D01*
X85158389Y-78474484D01*
X85180000Y-78462933D01*
X85198941Y-78447388D01*
X85214487Y-78428446D01*
X85226038Y-78406835D01*
X85233151Y-78383386D01*
X85235553Y-78359000D01*
X85233151Y-78334614D01*
X85226038Y-78311165D01*
X85214487Y-78289554D01*
X85198942Y-78270613D01*
X85180000Y-78255067D01*
X85158389Y-78243516D01*
X85083005Y-78212291D01*
X85038188Y-78182345D01*
X84992758Y-78151990D01*
X84916010Y-78075242D01*
X84875229Y-78014208D01*
X84855709Y-77984995D01*
X84814174Y-77884721D01*
X84793000Y-77778270D01*
X84793000Y-77669730D01*
X84814174Y-77563279D01*
X84855709Y-77463005D01*
X84908394Y-77384156D01*
X84916010Y-77372758D01*
X84992758Y-77296010D01*
X85083004Y-77235710D01*
X85083005Y-77235709D01*
X85158389Y-77204484D01*
X85180000Y-77192933D01*
X85198941Y-77177388D01*
X85214487Y-77158446D01*
X85226038Y-77136835D01*
X85233151Y-77113386D01*
X85235553Y-77089000D01*
X85233151Y-77064614D01*
X85226038Y-77041165D01*
X85214487Y-77019554D01*
X85198942Y-77000613D01*
X85180000Y-76985067D01*
X85158389Y-76973516D01*
X85083005Y-76942291D01*
X85025699Y-76904000D01*
X84992758Y-76881990D01*
X84916010Y-76805242D01*
X84855710Y-76714996D01*
X84855709Y-76714995D01*
X84814174Y-76614721D01*
X84793000Y-76508270D01*
X84793000Y-76399730D01*
X84814174Y-76293279D01*
X84855709Y-76193005D01*
X84916009Y-76102760D01*
X84916010Y-76102758D01*
X84992758Y-76026010D01*
X85083004Y-75965710D01*
X85083005Y-75965709D01*
X85183279Y-75924174D01*
X85289730Y-75903000D01*
X85398270Y-75903000D01*
X85504721Y-75924174D01*
G37*
G36*
X90401000Y-80461000D02*
G01*
X89399000Y-80461000D01*
X89399000Y-79559000D01*
X90401000Y-79559000D01*
X90401000Y-80461000D01*
G37*
G36*
X73431938Y-78879716D02*
G01*
X73452557Y-78885971D01*
X73471553Y-78896124D01*
X73488208Y-78909792D01*
X73501876Y-78926447D01*
X73512029Y-78945443D01*
X73518284Y-78966062D01*
X73521000Y-78993640D01*
X73521000Y-79502360D01*
X73518284Y-79529938D01*
X73512029Y-79550557D01*
X73501876Y-79569553D01*
X73488208Y-79586208D01*
X73471553Y-79599876D01*
X73452557Y-79610029D01*
X73431938Y-79616284D01*
X73404360Y-79619000D01*
X72945640Y-79619000D01*
X72918062Y-79616284D01*
X72897443Y-79610029D01*
X72878447Y-79599876D01*
X72861792Y-79586208D01*
X72848124Y-79569553D01*
X72837971Y-79550557D01*
X72831716Y-79529938D01*
X72829000Y-79502360D01*
X72829000Y-78993640D01*
X72831716Y-78966062D01*
X72837971Y-78945443D01*
X72848124Y-78926447D01*
X72861792Y-78909792D01*
X72878447Y-78896124D01*
X72897443Y-78885971D01*
X72918062Y-78879716D01*
X72945640Y-78877000D01*
X73404360Y-78877000D01*
X73431938Y-78879716D01*
G37*
G36*
X74401938Y-78879716D02*
G01*
X74422557Y-78885971D01*
X74441553Y-78896124D01*
X74458208Y-78909792D01*
X74471876Y-78926447D01*
X74482029Y-78945443D01*
X74488284Y-78966062D01*
X74491000Y-78993640D01*
X74491000Y-79502360D01*
X74488284Y-79529938D01*
X74482029Y-79550557D01*
X74471876Y-79569553D01*
X74458208Y-79586208D01*
X74441553Y-79599876D01*
X74422557Y-79610029D01*
X74401938Y-79616284D01*
X74374360Y-79619000D01*
X73915640Y-79619000D01*
X73888062Y-79616284D01*
X73867443Y-79610029D01*
X73848447Y-79599876D01*
X73831792Y-79586208D01*
X73818124Y-79569553D01*
X73807971Y-79550557D01*
X73801716Y-79529938D01*
X73799000Y-79502360D01*
X73799000Y-78993640D01*
X73801716Y-78966062D01*
X73807971Y-78945443D01*
X73818124Y-78926447D01*
X73831792Y-78909792D01*
X73848447Y-78896124D01*
X73867443Y-78885971D01*
X73888062Y-78879716D01*
X73915640Y-78877000D01*
X74374360Y-78877000D01*
X74401938Y-78879716D01*
G37*
G36*
X75465938Y-78881716D02*
G01*
X75486557Y-78887971D01*
X75505553Y-78898124D01*
X75522208Y-78911792D01*
X75535876Y-78928447D01*
X75546029Y-78947443D01*
X75552284Y-78968062D01*
X75555000Y-78995640D01*
X75555000Y-79454360D01*
X75552284Y-79481938D01*
X75546029Y-79502557D01*
X75535876Y-79521553D01*
X75522208Y-79538208D01*
X75505553Y-79551876D01*
X75486557Y-79562029D01*
X75465938Y-79568284D01*
X75438360Y-79571000D01*
X74929640Y-79571000D01*
X74902062Y-79568284D01*
X74881443Y-79562029D01*
X74862447Y-79551876D01*
X74845792Y-79538208D01*
X74832124Y-79521553D01*
X74821971Y-79502557D01*
X74815716Y-79481938D01*
X74813000Y-79454360D01*
X74813000Y-78995640D01*
X74815716Y-78968062D01*
X74821971Y-78947443D01*
X74832124Y-78928447D01*
X74845792Y-78911792D01*
X74862447Y-78898124D01*
X74881443Y-78887971D01*
X74902062Y-78881716D01*
X74929640Y-78879000D01*
X75438360Y-78879000D01*
X75465938Y-78881716D01*
G37*
G36*
X88401000Y-79511000D02*
G01*
X87399000Y-79511000D01*
X87399000Y-78609000D01*
X88401000Y-78609000D01*
X88401000Y-79511000D01*
G37*
G36*
X77241938Y-77863716D02*
G01*
X77262557Y-77869971D01*
X77281553Y-77880124D01*
X77298208Y-77893792D01*
X77311876Y-77910447D01*
X77322029Y-77929443D01*
X77328284Y-77950062D01*
X77331000Y-77977640D01*
X77331000Y-78486360D01*
X77328284Y-78513938D01*
X77322029Y-78534557D01*
X77311876Y-78553553D01*
X77298208Y-78570208D01*
X77281553Y-78583876D01*
X77262557Y-78594029D01*
X77241938Y-78600284D01*
X77214360Y-78603000D01*
X76755640Y-78603000D01*
X76728062Y-78600284D01*
X76707443Y-78594029D01*
X76688447Y-78583876D01*
X76671792Y-78570208D01*
X76658124Y-78553553D01*
X76647971Y-78534557D01*
X76641716Y-78513938D01*
X76639000Y-78486360D01*
X76639000Y-77977640D01*
X76641716Y-77950062D01*
X76647971Y-77929443D01*
X76658124Y-77910447D01*
X76671792Y-77893792D01*
X76688447Y-77880124D01*
X76707443Y-77869971D01*
X76728062Y-77863716D01*
X76755640Y-77861000D01*
X77214360Y-77861000D01*
X77241938Y-77863716D01*
G37*
G36*
X78211938Y-77863716D02*
G01*
X78232557Y-77869971D01*
X78251553Y-77880124D01*
X78268208Y-77893792D01*
X78281876Y-77910447D01*
X78292029Y-77929443D01*
X78298284Y-77950062D01*
X78301000Y-77977640D01*
X78301000Y-78486360D01*
X78298284Y-78513938D01*
X78292029Y-78534557D01*
X78281876Y-78553553D01*
X78268208Y-78570208D01*
X78251553Y-78583876D01*
X78232557Y-78594029D01*
X78211938Y-78600284D01*
X78184360Y-78603000D01*
X77725640Y-78603000D01*
X77698062Y-78600284D01*
X77677443Y-78594029D01*
X77658447Y-78583876D01*
X77641792Y-78570208D01*
X77628124Y-78553553D01*
X77617971Y-78534557D01*
X77611716Y-78513938D01*
X77609000Y-78486360D01*
X77609000Y-77977640D01*
X77611716Y-77950062D01*
X77617971Y-77929443D01*
X77628124Y-77910447D01*
X77641792Y-77893792D01*
X77658447Y-77880124D01*
X77677443Y-77869971D01*
X77698062Y-77863716D01*
X77725640Y-77861000D01*
X78184360Y-77861000D01*
X78211938Y-77863716D01*
G37*
G36*
X75465938Y-77911716D02*
G01*
X75486557Y-77917971D01*
X75505553Y-77928124D01*
X75522208Y-77941792D01*
X75535876Y-77958447D01*
X75546029Y-77977443D01*
X75552284Y-77998062D01*
X75555000Y-78025640D01*
X75555000Y-78484360D01*
X75552284Y-78511938D01*
X75546029Y-78532557D01*
X75535876Y-78551553D01*
X75522208Y-78568208D01*
X75505553Y-78581876D01*
X75486557Y-78592029D01*
X75465938Y-78598284D01*
X75438360Y-78601000D01*
X74929640Y-78601000D01*
X74902062Y-78598284D01*
X74881443Y-78592029D01*
X74862447Y-78581876D01*
X74845792Y-78568208D01*
X74832124Y-78551553D01*
X74821971Y-78532557D01*
X74815716Y-78511938D01*
X74813000Y-78484360D01*
X74813000Y-78025640D01*
X74815716Y-77998062D01*
X74821971Y-77977443D01*
X74832124Y-77958447D01*
X74845792Y-77941792D01*
X74862447Y-77928124D01*
X74881443Y-77917971D01*
X74902062Y-77911716D01*
X74929640Y-77909000D01*
X75438360Y-77909000D01*
X75465938Y-77911716D01*
G37*
G36*
X70893938Y-77357716D02*
G01*
X70914557Y-77363971D01*
X70933553Y-77374124D01*
X70950208Y-77387792D01*
X70963876Y-77404447D01*
X70974029Y-77423443D01*
X70980284Y-77444062D01*
X70983000Y-77471640D01*
X70983000Y-77930360D01*
X70980284Y-77957938D01*
X70974029Y-77978557D01*
X70963876Y-77997553D01*
X70950208Y-78014208D01*
X70933553Y-78027876D01*
X70914557Y-78038029D01*
X70893938Y-78044284D01*
X70866360Y-78047000D01*
X70357640Y-78047000D01*
X70330062Y-78044284D01*
X70309443Y-78038029D01*
X70290447Y-78027876D01*
X70273792Y-78014208D01*
X70260124Y-77997553D01*
X70249971Y-77978557D01*
X70243716Y-77957938D01*
X70241000Y-77930360D01*
X70241000Y-77471640D01*
X70243716Y-77444062D01*
X70249971Y-77423443D01*
X70260124Y-77404447D01*
X70273792Y-77387792D01*
X70290447Y-77374124D01*
X70309443Y-77363971D01*
X70330062Y-77357716D01*
X70357640Y-77355000D01*
X70866360Y-77355000D01*
X70893938Y-77357716D01*
G37*
G36*
X70893938Y-76387716D02*
G01*
X70914557Y-76393971D01*
X70933553Y-76404124D01*
X70950208Y-76417792D01*
X70963876Y-76434447D01*
X70974029Y-76453443D01*
X70980284Y-76474062D01*
X70983000Y-76501640D01*
X70983000Y-76960360D01*
X70980284Y-76987938D01*
X70974029Y-77008557D01*
X70963876Y-77027553D01*
X70950208Y-77044208D01*
X70933553Y-77057876D01*
X70914557Y-77068029D01*
X70893938Y-77074284D01*
X70866360Y-77077000D01*
X70357640Y-77077000D01*
X70330062Y-77074284D01*
X70309443Y-77068029D01*
X70290447Y-77057876D01*
X70273792Y-77044208D01*
X70260124Y-77027553D01*
X70249971Y-77008557D01*
X70243716Y-76987938D01*
X70241000Y-76960360D01*
X70241000Y-76501640D01*
X70243716Y-76474062D01*
X70249971Y-76453443D01*
X70260124Y-76434447D01*
X70273792Y-76417792D01*
X70290447Y-76404124D01*
X70309443Y-76393971D01*
X70330062Y-76387716D01*
X70357640Y-76385000D01*
X70866360Y-76385000D01*
X70893938Y-76387716D01*
G37*
G36*
X81451001Y-74511001D02*
G01*
X80449001Y-74511001D01*
X80449001Y-72409001D01*
X81451001Y-72409001D01*
X81451001Y-74511001D01*
G37*
G36*
X80181001Y-74511001D02*
G01*
X79179001Y-74511001D01*
X79179001Y-72409001D01*
X80181001Y-72409001D01*
X80181001Y-74511001D01*
G37*
G36*
X83991001Y-74511001D02*
G01*
X82989001Y-74511001D01*
X82989001Y-72409001D01*
X83991001Y-72409001D01*
X83991001Y-74511001D01*
G37*
G36*
X85261001Y-74511001D02*
G01*
X84259001Y-74511001D01*
X84259001Y-72409001D01*
X85261001Y-72409001D01*
X85261001Y-74511001D01*
G37*
G36*
X75101001Y-74511001D02*
G01*
X74099001Y-74511001D01*
X74099001Y-72409001D01*
X75101001Y-72409001D01*
X75101001Y-74511001D01*
G37*
G36*
X77641001Y-74511001D02*
G01*
X76639001Y-74511001D01*
X76639001Y-72409001D01*
X77641001Y-72409001D01*
X77641001Y-74511001D01*
G37*
G36*
X86531001Y-74511001D02*
G01*
X85529001Y-74511001D01*
X85529001Y-72409001D01*
X86531001Y-72409001D01*
X86531001Y-74511001D01*
G37*
G36*
X78911001Y-74511001D02*
G01*
X77909001Y-74511001D01*
X77909001Y-72409001D01*
X78911001Y-72409001D01*
X78911001Y-74511001D01*
G37*
G36*
X76371001Y-74511001D02*
G01*
X75369001Y-74511001D01*
X75369001Y-72409001D01*
X76371001Y-72409001D01*
X76371001Y-74511001D01*
G37*
G36*
X82721001Y-74511001D02*
G01*
X81719001Y-74511001D01*
X81719001Y-72409001D01*
X82721001Y-72409001D01*
X82721001Y-74511001D01*
G37*
G36*
X89866001Y-72961001D02*
G01*
X87764001Y-72961001D01*
X87764001Y-71959001D01*
X89866001Y-71959001D01*
X89866001Y-72961001D01*
G37*
G36*
X72866001Y-72961001D02*
G01*
X70764001Y-72961001D01*
X70764001Y-71959001D01*
X72866001Y-71959001D01*
X72866001Y-72961001D01*
G37*
G36*
X89866001Y-71691001D02*
G01*
X87764001Y-71691001D01*
X87764001Y-70689001D01*
X89866001Y-70689001D01*
X89866001Y-71691001D01*
G37*
G36*
X72866001Y-71691001D02*
G01*
X70764001Y-71691001D01*
X70764001Y-70689001D01*
X72866001Y-70689001D01*
X72866001Y-71691001D01*
G37*
G36*
X72866001Y-70421001D02*
G01*
X70764001Y-70421001D01*
X70764001Y-69419001D01*
X72866001Y-69419001D01*
X72866001Y-70421001D01*
G37*
G36*
X89866001Y-70421001D02*
G01*
X87764001Y-70421001D01*
X87764001Y-69419001D01*
X89866001Y-69419001D01*
X89866001Y-70421001D01*
G37*
G36*
X72866001Y-69151001D02*
G01*
X70764001Y-69151001D01*
X70764001Y-68149001D01*
X72866001Y-68149001D01*
X72866001Y-69151001D01*
G37*
G36*
X89866001Y-69151001D02*
G01*
X87764001Y-69151001D01*
X87764001Y-68149001D01*
X89866001Y-68149001D01*
X89866001Y-69151001D01*
G37*
G36*
X89866001Y-67881001D02*
G01*
X87764001Y-67881001D01*
X87764001Y-66879001D01*
X89866001Y-66879001D01*
X89866001Y-67881001D01*
G37*
G36*
X72866001Y-67881001D02*
G01*
X70764001Y-67881001D01*
X70764001Y-66879001D01*
X72866001Y-66879001D01*
X72866001Y-67881001D01*
G37*
G36*
X89866001Y-66611001D02*
G01*
X87764001Y-66611001D01*
X87764001Y-65609001D01*
X89866001Y-65609001D01*
X89866001Y-66611001D01*
G37*
G36*
X72866001Y-66611001D02*
G01*
X70764001Y-66611001D01*
X70764001Y-65609001D01*
X72866001Y-65609001D01*
X72866001Y-66611001D01*
G37*
G36*
X81866001Y-66001001D02*
G01*
X76764001Y-66001001D01*
X76764001Y-60899001D01*
X81866001Y-60899001D01*
X81866001Y-66001001D01*
G37*
G36*
X89866001Y-65341001D02*
G01*
X87764001Y-65341001D01*
X87764001Y-64339001D01*
X89866001Y-64339001D01*
X89866001Y-65341001D01*
G37*
G36*
X72866001Y-65341001D02*
G01*
X70764001Y-65341001D01*
X70764001Y-64339001D01*
X72866001Y-64339001D01*
X72866001Y-65341001D01*
G37*
G36*
X89866001Y-64071001D02*
G01*
X87764001Y-64071001D01*
X87764001Y-63069001D01*
X89866001Y-63069001D01*
X89866001Y-64071001D01*
G37*
G36*
X72866001Y-64071001D02*
G01*
X70764001Y-64071001D01*
X70764001Y-63069001D01*
X72866001Y-63069001D01*
X72866001Y-64071001D01*
G37*
G36*
X89866001Y-62801001D02*
G01*
X87764001Y-62801001D01*
X87764001Y-61799001D01*
X89866001Y-61799001D01*
X89866001Y-62801001D01*
G37*
G36*
X72866001Y-62801001D02*
G01*
X70764001Y-62801001D01*
X70764001Y-61799001D01*
X72866001Y-61799001D01*
X72866001Y-62801001D01*
G37*
G36*
X69877938Y-61609716D02*
G01*
X69898557Y-61615971D01*
X69917553Y-61626124D01*
X69934208Y-61639792D01*
X69947876Y-61656447D01*
X69958029Y-61675443D01*
X69964284Y-61696062D01*
X69967000Y-61723640D01*
X69967000Y-62182360D01*
X69964284Y-62209938D01*
X69958029Y-62230557D01*
X69947876Y-62249553D01*
X69934208Y-62266208D01*
X69917553Y-62279876D01*
X69898557Y-62290029D01*
X69877938Y-62296284D01*
X69850360Y-62299000D01*
X69341640Y-62299000D01*
X69314062Y-62296284D01*
X69293443Y-62290029D01*
X69274447Y-62279876D01*
X69257792Y-62266208D01*
X69244124Y-62249553D01*
X69233971Y-62230557D01*
X69227716Y-62209938D01*
X69225000Y-62182360D01*
X69225000Y-61723640D01*
X69227716Y-61696062D01*
X69233971Y-61675443D01*
X69244124Y-61656447D01*
X69257792Y-61639792D01*
X69274447Y-61626124D01*
X69293443Y-61615971D01*
X69314062Y-61609716D01*
X69341640Y-61607000D01*
X69850360Y-61607000D01*
X69877938Y-61609716D01*
G37*
G36*
X91916000Y-61944000D02*
G01*
X90964000Y-61944000D01*
X90964000Y-60992000D01*
X91916000Y-60992000D01*
X91916000Y-61944000D01*
G37*
G36*
X89866001Y-61531001D02*
G01*
X87764001Y-61531001D01*
X87764001Y-60529001D01*
X89866001Y-60529001D01*
X89866001Y-61531001D01*
G37*
G36*
X72866001Y-61531001D02*
G01*
X70764001Y-61531001D01*
X70764001Y-60529001D01*
X72866001Y-60529001D01*
X72866001Y-61531001D01*
G37*
G36*
X69877938Y-60639716D02*
G01*
X69898557Y-60645971D01*
X69917553Y-60656124D01*
X69934208Y-60669792D01*
X69947876Y-60686447D01*
X69958029Y-60705443D01*
X69964284Y-60726062D01*
X69967000Y-60753640D01*
X69967000Y-61212360D01*
X69964284Y-61239938D01*
X69958029Y-61260557D01*
X69947876Y-61279553D01*
X69934208Y-61296208D01*
X69917553Y-61309876D01*
X69898557Y-61320029D01*
X69877938Y-61326284D01*
X69850360Y-61329000D01*
X69341640Y-61329000D01*
X69314062Y-61326284D01*
X69293443Y-61320029D01*
X69274447Y-61309876D01*
X69257792Y-61296208D01*
X69244124Y-61279553D01*
X69233971Y-61260557D01*
X69227716Y-61239938D01*
X69225000Y-61212360D01*
X69225000Y-60753640D01*
X69227716Y-60726062D01*
X69233971Y-60705443D01*
X69244124Y-60686447D01*
X69257792Y-60669792D01*
X69274447Y-60656124D01*
X69293443Y-60645971D01*
X69314062Y-60639716D01*
X69341640Y-60637000D01*
X69850360Y-60637000D01*
X69877938Y-60639716D01*
G37*
G36*
X72866001Y-60261001D02*
G01*
X70764001Y-60261001D01*
X70764001Y-59259001D01*
X72866001Y-59259001D01*
X72866001Y-60261001D01*
G37*
G36*
X89866001Y-60261001D02*
G01*
X87764001Y-60261001D01*
X87764001Y-59259001D01*
X89866001Y-59259001D01*
X89866001Y-60261001D01*
G37*
G36*
X91916000Y-59912000D02*
G01*
X90964000Y-59912000D01*
X90964000Y-58960000D01*
X91916000Y-58960000D01*
X91916000Y-59912000D01*
G37*
G36*
X69960499Y-58455445D02*
G01*
X69997995Y-58466820D01*
X70032554Y-58485292D01*
X70062847Y-58510153D01*
X70087708Y-58540446D01*
X70106180Y-58575005D01*
X70117555Y-58612501D01*
X70122000Y-58657638D01*
X70122000Y-59396362D01*
X70117555Y-59441499D01*
X70106180Y-59478995D01*
X70087708Y-59513554D01*
X70062847Y-59543847D01*
X70032554Y-59568708D01*
X69997995Y-59587180D01*
X69960499Y-59598555D01*
X69915362Y-59603000D01*
X69276638Y-59603000D01*
X69231501Y-59598555D01*
X69194005Y-59587180D01*
X69159446Y-59568708D01*
X69129153Y-59543847D01*
X69104292Y-59513554D01*
X69085820Y-59478995D01*
X69074445Y-59441499D01*
X69070000Y-59396362D01*
X69070000Y-58657638D01*
X69074445Y-58612501D01*
X69085820Y-58575005D01*
X69104292Y-58540446D01*
X69129153Y-58510153D01*
X69159446Y-58485292D01*
X69194005Y-58466820D01*
X69231501Y-58455445D01*
X69276638Y-58451000D01*
X69915362Y-58451000D01*
X69960499Y-58455445D01*
G37*
G36*
X89866001Y-58991001D02*
G01*
X87764001Y-58991001D01*
X87764001Y-57989001D01*
X89866001Y-57989001D01*
X89866001Y-58991001D01*
G37*
G36*
X72866001Y-58991001D02*
G01*
X70764001Y-58991001D01*
X70764001Y-57989001D01*
X72866001Y-57989001D01*
X72866001Y-58991001D01*
G37*
G36*
X69960499Y-56705445D02*
G01*
X69997995Y-56716820D01*
X70032554Y-56735292D01*
X70062847Y-56760153D01*
X70087708Y-56790446D01*
X70106180Y-56825005D01*
X70117555Y-56862501D01*
X70122000Y-56907638D01*
X70122000Y-57646362D01*
X70117555Y-57691499D01*
X70106180Y-57728995D01*
X70087708Y-57763554D01*
X70062847Y-57793847D01*
X70032554Y-57818708D01*
X69997995Y-57837180D01*
X69960499Y-57848555D01*
X69915362Y-57853000D01*
X69276638Y-57853000D01*
X69231501Y-57848555D01*
X69194005Y-57837180D01*
X69159446Y-57818708D01*
X69129153Y-57793847D01*
X69104292Y-57763554D01*
X69085820Y-57728995D01*
X69074445Y-57691499D01*
X69070000Y-57646362D01*
X69070000Y-56907638D01*
X69074445Y-56862501D01*
X69085820Y-56825005D01*
X69104292Y-56790446D01*
X69129153Y-56760153D01*
X69159446Y-56735292D01*
X69194005Y-56716820D01*
X69231501Y-56705445D01*
X69276638Y-56701000D01*
X69915362Y-56701000D01*
X69960499Y-56705445D01*
G37*
G36*
X72866001Y-57721001D02*
G01*
X70764001Y-57721001D01*
X70764001Y-56719001D01*
X72866001Y-56719001D01*
X72866001Y-57721001D01*
G37*
G36*
X89866001Y-57721001D02*
G01*
X87764001Y-57721001D01*
X87764001Y-56719001D01*
X89866001Y-56719001D01*
X89866001Y-57721001D01*
G37*
G36*
X72866001Y-56451001D02*
G01*
X70764001Y-56451001D01*
X70764001Y-55449001D01*
X72866001Y-55449001D01*
X72866001Y-56451001D01*
G37*
G36*
X89866001Y-56451001D02*
G01*
X87764001Y-56451001D01*
X87764001Y-55449001D01*
X89866001Y-55449001D01*
X89866001Y-56451001D01*
G37*
M02*
